<?xml version="1.0" encoding="UTF-8" standalone="no"?>
<svg
   xmlns:dc="http://purl.org/dc/elements/1.1/"
   xmlns:cc="http://creativecommons.org/ns#"
   xmlns:rdf="http://www.w3.org/1999/02/22-rdf-syntax-ns#"
   xmlns:svg="http://www.w3.org/2000/svg"
   xmlns="http://www.w3.org/2000/svg"
   xmlns:xlink="http://www.w3.org/1999/xlink"
   xmlns:sodipodi="http://sodipodi.sourceforge.net/DTD/sodipodi-0.dtd"
   xmlns:inkscape="http://www.inkscape.org/namespaces/inkscape"
   viewBox="0 0 512 512"
   width="512"
   height="512"
   version="1.1"
   id="svg12"
   sodipodi:docname="audio-doc.svg"
   inkscape:version="0.92.4 (5da689c313, 2019-01-14)">
  <metadata
     id="metadata18">
    <rdf:RDF>
      <cc:Work
         rdf:about="">
        <dc:format>image/svg+xml</dc:format>
        <dc:type
           rdf:resource="http://purl.org/dc/dcmitype/StillImage" />
      </cc:Work>
    </rdf:RDF>
  </metadata>
  <defs
     id="defs16">
    <linearGradient
       inkscape:collect="always"
       xlink:href="#a"
       id="linearGradient4531"
       gradientUnits="userSpaceOnUse"
       x1="250.51"
       y1="18"
       x2="250.51"
       y2="466"
       gradientTransform="matrix(1.2477359,0,0,1.2477359,-63.420497,-63.420399)" />
  </defs>
  <linearGradient
     id="a"
     gradientUnits="userSpaceOnUse"
     x1="250.51"
     x2="250.51"
     y1="18"
     y2="466">
    <stop
       offset="0"
       stop-color="#8f6eff"
       id="stop2" />
    <stop
       offset="1"
       stop-color="#a33b5f"
       id="stop4" />
  </linearGradient>
  <linearGradient
     id="b"
     x1="256"
     x2="256"
     xlink:href="#a"
     y1="18"
     y2="466"
     gradientTransform="matrix(1.2477359,0,0,1.2477359,-63.420497,-63.420399)" />
  <path
     d="m 204.84273,256.45542 v 93.22709 c -3.74321,-1.91902 -9.52397,-2.98708 -14.89048,-2.98708 a 40.12594,40.12594 0 1 0 39.8452,40.12594 v -69.96305 l 93.58019,-19.15649 v 28.8489 c -3.7432,-1.93773 -9.54019,-3.01328 -14.89547,-3.01328 a 40.158381,40.158381 0 1 0 39.85019,40.12469 V 232.1907 A 12.074341,12.074341 0 0 0 333.7638,219.96289 L 215.028,244.22761 a 12.667015,12.667015 0 0 0 -10.18527,12.22781 z M 190.23174,401.9851 a 15.169973,15.169973 0 1 1 15.16997,-15.16872 15.186194,15.186194 0 0 1 -15.16997,15.16872 z m 133.1459,-38.32296 a 14.972831,14.972831 0 1 1 0,-0.39553 z m -93.58019,-97.02519 93.58019,-19.15649 v 24.74884 l -93.58019,19.15649 z"
     id="path8"
     style="fill:url(#b);stroke-width:1.24773598" />
  <path
     d="M 449.87561,140.14273 319.44603,10.363218 315.56183,6.4216197 a 12.540994,12.540994 0 0 0 -8.8215,-3.7120144 H 119.39029 A 64.485489,64.485489 0 0 0 55.114417,67.342327 V 444.65767 a 64.485489,64.485489 0 0 0 64.275873,64.63272 h 273.21923 a 64.485489,64.485489 0 0 0 64.27587,-64.63272 V 152.56269 a 12.36132,12.36132 0 0 0 -3.53234,-8.82149 z M 320.88217,46.636149 413.78609,139.96056 h -86.22728 c -3.88171,0 -6.67664,-3.67958 -6.67664,-7.56003 z m 111.0485,398.021521 a 39.50332,39.50332 0 0 1 -39.32115,39.67801 H 119.39029 A 39.50332,39.50332 0 0 1 80.069136,444.65767 V 67.342327 A 39.50332,39.50332 0 0 1 119.39029,27.664324 H 295.92745 V 132.40053 c 0,17.64049 13.98962,32.51475 31.63136,32.51475 h 104.37186 z"
     id="path10"
     style="fill:url(#b);stroke-width:1.24773598"/>
</svg>
