<?xml version="1.0" encoding="UTF-8" standalone="no"?>
<svg
   xmlns:dc="http://purl.org/dc/elements/1.1/"
   xmlns:cc="http://creativecommons.org/ns#"
   xmlns:rdf="http://www.w3.org/1999/02/22-rdf-syntax-ns#"
   xmlns:svg="http://www.w3.org/2000/svg"
   xmlns="http://www.w3.org/2000/svg"
   xmlns:sodipodi="http://sodipodi.sourceforge.net/DTD/sodipodi-0.dtd"
   xmlns:inkscape="http://www.inkscape.org/namespaces/inkscape"
   viewBox="0 0 4266.6665 2666.6667"
   height="2666.6667"
   width="4266.6665"
   xml:space="preserve"
   id="svg2"
   version="1.1"
   sodipodi:docname="band.svg"
   inkscape:version="0.92.4 (5da689c313, 2019-01-14)"><sodipodi:namedview
     pagecolor="#ffffff"
     bordercolor="#666666"
     borderopacity="1"
     objecttolerance="10"
     gridtolerance="10"
     guidetolerance="10"
     inkscape:pageopacity="0"
     inkscape:pageshadow="2"
     inkscape:window-width="1920"
     inkscape:window-height="1017"
     id="namedview242"
     showgrid="false"
     inkscape:zoom="0.22737903"
     inkscape:cx="1340.22"
     inkscape:cy="1427.9826"
     inkscape:window-x="1672"
     inkscape:window-y="-8"
     inkscape:window-maximized="1"
     inkscape:current-layer="svg2" /><metadata
     id="metadata8"><rdf:RDF><cc:Work
         rdf:about=""><dc:format>image/svg+xml</dc:format><dc:type
           rdf:resource="http://purl.org/dc/dcmitype/StillImage" /><dc:title /></cc:Work></rdf:RDF></metadata><defs
     id="defs6" /><path
     inkscape:connector-curvature="0"
     d="m 455.87785,2196.241 c 0.17177,0.1186 3363.65295,-0.3992 3363.65295,-0.3992 0,0 9.7502,-19.9213 21.9198,-45.988 9.0243,-19.3334 20.202,-44.9863 31.8151,-75.853 v -0.014 c 2.1774,-5.7316 4.3549,-11.6663 6.5324,-17.7584 3.0484,-8.5598 6.121,-17.4535 9.1453,-26.6666 1.1371,-3.4017 2.2742,-6.8663 3.3872,-10.3599 6.7259,-21.0004 13.2583,-43.5347 19.3068,-67.3875 0.4113,-1.6525 0.8468,-3.334 1.2581,-5.0009 2.25,-9.1333 4.4275,-18.4528 6.5323,-27.9465 1.1613,-5.2791 2.2743,-10.5994 3.3872,-15.9729 l 0.2177,-1.1057 c 0.4113,-2.0008 0.7984,-4.0016 1.2097,-6.0001 7.5486,-38.3329 13.4035,-79.1603 16.4036,-121.7877 0.5322,-7.4929 0.9435,-15.0656 1.3065,-22.6795 0.3387,-7.6937 0.5806,-15.4382 0.7258,-23.2262 0.9435,-48.4001 -2.0807,-98.639 -10.6212,-149.6665 -3.3388,-19.9867 -7.5001,-40.1064 -12.6293,-60.2794 -3.75,-14.7341 -7.984,-29.4804 -12.7744,-44.2677 -0.8952,-2.746 -1.7662,-5.5066 -2.7097,-8.2671 -11.0567,-32.9184 -24.8231,-65.8246 -41.6379,-98.4914 -1.5,-2.9347 -3.0484,-5.8936 -4.621,-8.8284 -12.6051,-23.6931 -26.8796,-47.2339 -42.9202,-70.5085 -1.6452,-2.3904 -3.2904,-4.7662 -4.984,-7.1445 -9.363,-13.2511 -19.3068,-26.415 -29.9037,-39.4943 -15.3632,-19.0625 -32.1297,-37.8951 -50.2268,-56.464 -25.065,-25.7158 -49.9364,-49.0412 -74.5659,-70.1359 -10.1373,-8.7196 -20.2504,-17.0447 -30.3151,-25.0142 -8.6372,-6.8445 -17.2503,-13.4083 -25.7908,-19.7036 -0.4839,-0.3557 -0.9919,-0.7137 -1.4516,-1.0718 -19.8391,-14.5672 -39.5088,-27.7578 -58.9608,-39.6782 -3.9678,-2.4266 -7.9356,-4.8146 -11.9034,-7.1565 -19.1133,-11.2551 -38.033,-21.3053 -56.7592,-30.25706 -4.0887,-1.95729 -8.1775,-3.86862 -12.2421,-5.71462 -128.1556,-58.32447 -246.9482,-65.92139 -352.0469,-56.25589 -81.2193,7.47595 -154.3093,25.28273 -217.1411,37.97974 -4.1372,0.83711 -8.2018,1.65245 -12.2422,2.43876 -40.9121,7.94531 -77.2273,13.17847 -108.4133,11.14617 -49.7429,-3.25167 -90.3162,-33.48449 -133.9138,-78.06677 -3.1694,-3.25168 -6.363,-6.56384 -9.5808,-9.96309 -25.4037,-26.84566 -52.1139,-58.15028 -82.4532,-91.48961 -5.5404,-6.08237 -11.2018,-12.22765 -17.0084,-18.43583 -11.4679,-12.26635 -23.4439,-24.75288 -36.0732,-37.3265 -1.9597,-1.9452 -3.9194,-3.88072 -5.8792,-5.82591 -4.2823,-4.18798 -8.613,-8.38806 -13.0405,-12.58572 -1.9597,-1.86052 -3.8953,-3.72104 -5.8792,-5.56704 -14.347,-13.46154 -29.4924,-26.93276 -45.5911,-40.3072 -69.3739,-57.67124 -156.2013,-113.26179 -271.0938,-155.77549 -0.053,-0.0242 -0.1064,-0.0363 -0.1597,-0.0605 -48.5331,-17.95679 -102.0817,-33.5595 -161.4272,-46.00973 -65.1859,-13.6817 -135.2275,-23.89157 -207.12,-29.86507 -17.3325,-1.44196 -34.7595,-2.63473 -52.2517,-3.57103 -18.7891,-0.9968 -37.6411,-1.71294 -56.5221,-2.1073 -11.3324,-0.23226 -22.6649,-0.35565 -34.0119,-0.36775 -28.0529,-0.0508 -56.1204,0.62662 -84.0136,2.05649 -9.9075,0.49356 -19.7859,1.08389 -29.6256,1.77342 -120.6821,8.46064 -236.9657,31.30461 -335.0796,72.14167 -68.8174,28.6215 -328.09,156.68759 -404.16078,373.32308 -24.02706,68.37466 -29.79007,145.56568 -5.56704,231.24388 85.7387,303.1677 -44.80244,340.9152 -208.13855,485.3945 -218.00245,192.8116 -288.19892,452.9987 -113.34888,586.373"
     style="fill:#edf4ff;fill-opacity:0.2;fill-rule:nonzero;stroke:none;stroke-width:0.24193999"
     id="path20" /><path
     id="path22"
     style="fill:#ffb27d;fill-opacity:1;fill-rule:nonzero;stroke:none;stroke-width:0.13333333"
     d="m 1356,1399.5601 c 0,0 -85.62,144.28 -94.784,180.9333 -9.1627,36.6533 51.9933,27.4933 69.196,0 17.2013,-27.4933 91.8146,-109.6267 91.8146,-109.6267 L 1356,1399.5601"
     inkscape:connector-curvature="0" /><path
     id="path24"
     style="fill:#ffb27d;fill-opacity:1;fill-rule:nonzero;stroke:none;stroke-width:0.13333333"
     d="m 1571.3466,1441.5334 c -22.2266,-31.1333 19.5734,-67.7867 47.7334,-41.8933 35.4666,32.6133 82.48,77.16 87.2266,88.3466 7.7067,18.1867 -44.1866,54.9867 -117.6533,-25.3066 -6.9467,-7.5867 -12.6533,-14.6267 -17.3067,-21.1467"
     inkscape:connector-curvature="0" /><path
     id="path26"
     style="fill:#2c3a64;fill-opacity:1;fill-rule:nonzero;stroke:none;stroke-width:0.13333333"
     d="m 1538.8933,2194.7067 h -133.7467 c 0,0 -2.5466,-21.76 0.52,-40.36 0.3734,-2.2667 1.5467,-4.2933 3.3067,-6.0933 7.8267,2.6533 19.3333,4.52 32.1333,-0.067 10.48,-3.7733 18.2534,-9.4933 23.6534,-14.72 1.3866,1.3467 29.0133,27.68 41.7866,27.68 13.1067,0 33.1067,6.3067 32.3467,33.56"
     inkscape:connector-curvature="0" /><path
     id="path28"
     style="fill:#2c3a64;fill-opacity:1;fill-rule:nonzero;stroke:none;stroke-width:0.13333333"
     d="m 1723.3866,2194.7067 h -133.7333 c 0,0 -2.56,-21.76 0.52,-40.36 0.36,-2.2667 1.5467,-4.2933 3.2933,-6.0933 7.84,2.6533 19.3334,4.52 32.1334,-0.067 10.4933,-3.7733 18.2533,-9.4933 23.6533,-14.72 1.3867,1.3467 29.0267,27.68 41.8,27.68 13.0933,0 33.0933,6.3067 32.3333,33.56"
     inkscape:connector-curvature="0" /><path
     id="path30"
     style="fill:#35488b;fill-opacity:1;fill-rule:nonzero;stroke:none;stroke-width:0.13333333"
     d="m 1665.04,2140.0267 c 0,0 -53.2534,25.6 -84.6667,8.3467 0,0 -12.4133,-43.48 -27.2933,-106.7334 -12.32,-52.3599 -26.3334,-118.2799 -36.4134,-184.2666 -0.5333,-3.4667 -1.0533,-7.2667 -1.5466,-11.3467 -8.12,-66.52 -7.88,-206.2533 127.1866,-169.24 l 22.7334,463.24"
     inkscape:connector-curvature="0" /><path
     id="path32"
     style="fill:#2c3a64;fill-opacity:1;fill-rule:nonzero;stroke:none;stroke-width:0.13333333"
     d="m 1553.08,2041.64 c -12.32,-52.3599 -26.3334,-118.2799 -36.4134,-184.2666 -0.5333,-3.4667 -1.0533,-7.2667 -1.5466,-11.3467 8.1066,-46.7466 20.8933,-84.1466 36.0133,-88.7066 0,0 53.2667,225.8266 1.9467,284.3199"
     inkscape:connector-curvature="0" /><path
     id="path34"
     style="fill:#2c3a64;fill-opacity:1;fill-rule:nonzero;stroke:none;stroke-width:0.13333333"
     d="m 1542.0133,2194.7067 h -133.7467 c 0,0 -2.5466,-21.76 0.52,-40.36 0.3734,-2.2667 1.5467,-4.2933 3.3067,-6.0933 7.8267,2.6533 19.3333,4.52 32.1333,-0.067 10.4934,-3.7733 18.2534,-9.4933 23.6534,-14.72 1.3866,1.3467 29.0133,27.68 41.7866,27.68 13.1067,0 33.1067,6.3067 32.3467,33.56"
     inkscape:connector-curvature="0" /><path
     id="path36"
     style="fill:#35488b;fill-opacity:1;fill-rule:nonzero;stroke:none;stroke-width:0.13333333"
     d="m 1399.7733,1675.3467 c -5.84,0.8134 16.2,255.7867 4.3733,303.64 -11.8133,47.8533 -0.027,177.1733 -0.027,177.1733 0,0 45.3066,13.0534 94.3066,-5.5333 0,0 15.2534,-155.1733 28.2267,-199.6266 27.92,-95.7334 42.36,-267.7734 42.36,-267.7734 l -169.24,-7.88"
     inkscape:connector-curvature="0" /><path
     id="path38"
     style="fill:#ffb27d;fill-opacity:1;fill-rule:nonzero;stroke:none;stroke-width:0.13333333"
     d="m 1529.7866,1362.6134 -66.3866,43.3067 -19.2134,-47.2 c 0,0 7.1467,-17.8 8.2667,-45.84 0.4667,-11.7867 -0.12,-25.3867 -2.7867,-40.2267 l 60.28,23.2133 c 0,0 -0.8,5.44 -0.88,13.3334 -0.08,8.5333 0.68,19.9466 4.2267,30.4933 3.0533,9.0533 8.1333,17.4667 16.4933,22.92"
     inkscape:connector-curvature="0" /><path
     id="path40"
     style="fill:#ffb93e;fill-opacity:1;fill-rule:nonzero;stroke:none;stroke-width:0.13333333"
     d="M 1650.3866,1660.0134 1608.84,1486.8267 c 33.2933,-15.7333 45.16,-65.3866 45.16,-65.3866 l -65.7467,-50.9334 c -6.9333,-5.36 -14.8933,-9.24 -23.4,-11.3333 -9.8267,-2.4267 -25.7733,-5.0533 -44.9467,-6.1733 1.3867,10.0666 -0.44,19.6 -17.8933,23.7866 -23.24,5.5867 -46,-8.2666 -57.8267,-18.0666 -22.56,5.7066 -46.4666,15.0533 -71.8266,29.6133 v -0.013 c 0,0 -3.9734,1.8133 -10.2267,6.1066 -2.1467,1.3334 -6.32,4.6534 -6.32,4.6534 -14.3467,11.2533 -35.1813,32.3866 -50.7427,68.1866 0,0 8.7494,46.16 79.6494,58.0934 v 0 l 0.2133,0.96 1.9467,8.4266 10.7066,46.72 -9.52,130.9467 c -0.093,1.1333 -0.08,2.2933 0.04,3.3867 0.92,8.5733 7.6,15.7066 16.4534,16.8666 0,0 2.0266,0.12 5.7333,0.24 8.7467,0.2934 30.5467,0.84 58.4667,0.16 26.8133,-0.6533 59.24,-2.44 91.12,-6.68 29.5733,-3.9333 58.68,-9.9866 82.36,-19.1866 17.04,-6.64 11.5333,-29.1734 8.1466,-47.1867"
     inkscape:connector-curvature="0" /><path
     id="path42"
     style="fill:#ea9c68;fill-opacity:1;fill-rule:nonzero;stroke:none;stroke-width:0.13333333"
     d="m 1513.2933,1339.6934 c -32.6133,2.5867 -60.84,-26.8133 -60.84,-26.8133 l 56.6133,-3.68 c -0.08,8.5333 0.68,19.9466 4.2267,30.4933"
     inkscape:connector-curvature="0" /><path
     id="path44"
     style="fill:#ffb27d;fill-opacity:1;fill-rule:nonzero;stroke:none;stroke-width:0.13333333"
     d="m 1522.6533,1301.2001 c 0,0 -55.8933,37.7866 -94.2533,-3.7467 -41.4,-44.8133 -29.72,-92.1067 -9.72,-102.0133 39.8933,-19.76 69.6666,-12.3334 82.8666,1.9066 13.2134,14.24 52.04,83.3067 21.1067,103.8534"
     inkscape:connector-curvature="0" /><path
     id="path46"
     style="fill:#ffa412;fill-opacity:1;fill-rule:nonzero;stroke:none;stroke-width:0.13333333"
     d="m 1559.88,1726.3867 c -31.88,4.24 -64.3067,6.0267 -91.12,6.68 -27.92,0.68 -49.72,0.1334 -58.4667,-0.16 -3.7067,-0.12 -5.7333,-0.24 -5.7333,-0.24 -8.8534,-1.16 -15.5334,-8.2933 -16.4534,-16.8666 -0.12,-1.0934 -0.1333,-2.2534 -0.04,-3.3867 l 9.52,-130.9467 -10.7066,-46.72 -1.9467,-8.4266 c 0.1467,-0.64 0.2267,-0.96 0.2267,-0.96 0,0 156.6666,123.2933 174.72,201.0266"
     inkscape:connector-curvature="0" /><path
     id="path48"
     style="fill:#2c3a64;fill-opacity:1;fill-rule:nonzero;stroke:none;stroke-width:0.13333333"
     d="m 1445.3866,1310.7467 c 0,0 -14.64,-18.6666 -17.72,-30.28 0,0 -23.24,-14.8666 -15.6533,-23.2133 7.5867,-8.3467 16.88,2 18.2,-1.12 1.3067,-3.1333 -9.4267,-44.56 2.3867,-47.2667 11.8133,-2.7066 58.44,-4.3733 71.32,-26.7333 12.88,-22.3467 -53.5867,-68.8267 -121,-18.32 -67.4227,50.52 -22.4667,129.3867 62.4666,146.9333"
     inkscape:connector-curvature="0" /><path
     id="path50"
     style="fill:#2c3a64;fill-opacity:1;fill-rule:nonzero;stroke:none;stroke-width:0.13333333"
     d="m 1357.08,1209.9467 c 0,0 -7.0267,-9.04 -5.8934,-17.64 0,0 3.7067,10.0134 9.2267,13.1067 5.5333,3.1067 -3.3333,4.5333 -3.3333,4.5333"
     inkscape:connector-curvature="0" /><path
     id="path52"
     style="fill:#2c3a64;fill-opacity:1;fill-rule:nonzero;stroke:none;stroke-width:0.13333333"
     d="m 1356.1466,1202.2401 c 0,0 -9.7466,2.2133 -11.6533,10.9733 0,0 5.04,-6.7733 13.3733,-4.3733 l -1.72,-6.6"
     inkscape:connector-curvature="0" /><path
     id="path54"
     style="fill:#ffb27d;fill-opacity:1;fill-rule:nonzero;stroke:none;stroke-width:0.13333333"
     d="m 1660.5866,1510.8534 c 0,0 68.4134,23.3067 155.68,1.5333 l 5.6667,-24.2933 c 0,0 -99.0533,-14.28 -135.7067,-17.2267 -36.6533,-2.9466 -25.64,39.9867 -25.64,39.9867"
     inkscape:connector-curvature="0" /><path
     id="path56"
     style="fill:#f99746;fill-opacity:1;fill-rule:nonzero;stroke:none;stroke-width:0.13333333"
     d="m 1539.2533,1510.1467 c -5.3067,2.5334 -10.2533,5.5067 -14.8533,8.8267 l -0.013,-0.027 c -36.2266,23.88 -74.3733,30.6 -94.0533,32.48 -17.1867,-0.093 -34.72,3.6267 -51.3467,11.5734 -57.9453,27.68 -82.888,96.24 -55.7106,153.1066 27.1773,56.88 96.1773,80.5334 154.124,52.84 20.0133,-9.56 36.0933,-24 47.44,-41.1466 21.6133,-26.8134 50.6266,-37.72 66.5333,-41.9067 3.8267,-0.5467 7.6533,-1.3467 11.4667,-2.3867 0.1066,-0.013 0.1733,-0.013 0.1733,-0.013 l -0.013,-0.027 c 5.48,-1.4933 10.8933,-3.48 16.2,-6.0133 47.0666,-22.4933 67.3333,-78.1733 45.2533,-124.3733 -22.08,-46.2134 -78.1333,-65.4267 -125.2,-42.9334"
     inkscape:connector-curvature="0" /><path
     id="path58"
     style="fill:#ed7d2b;fill-opacity:1;fill-rule:nonzero;stroke:none;stroke-width:0.13333333"
     d="m 1856.3333,1476.4134 -313.8667,149.9733 c -7.2666,3.48 -16.0533,0.3734 -19.5333,-6.8933 v 0 c -3.48,-7.28 -0.3733,-16.0667 6.9067,-19.5467 l 313.8533,-149.9733 c 7.28,-3.48 16.0667,-0.3733 19.5333,6.9067 v 0 c 3.48,7.2666 0.3734,16.0533 -6.8933,19.5333"
     inkscape:connector-curvature="0" /><path
     id="path60"
     style="fill:#ed7d2b;fill-opacity:1;fill-rule:nonzero;stroke:none;stroke-width:0.13333333"
     d="m 1425.2666,1701.6534 -0.48,0.2267 c -3.7066,1.7733 -8.2,0.1866 -9.9733,-3.5334 l -21.16,-44.28 c -1.7733,-3.72 -0.1867,-8.2 3.52,-9.9733 l 0.48,-0.2267 c 3.7067,-1.7733 8.2,-0.1866 9.9733,3.52 l 21.16,44.28 c 1.7734,3.72 0.1867,8.2134 -3.52,9.9867"
     inkscape:connector-curvature="0" /><path
     id="path62"
     style="fill:#ed7d2b;fill-opacity:1;fill-rule:nonzero;stroke:none;stroke-width:0.13333333"
     d="m 1432.3333,1662.7867 c -6.8533,-14.32 0.053,-31.88 15.4133,-39.2266 15.36,-7.3334 33.36,-1.68 40.2,12.64 6.84,14.32 -0.053,31.88 -15.4133,39.2266 -15.36,7.3334 -33.36,1.68 -40.2,-12.64"
     inkscape:connector-curvature="0" /><path
     id="path64"
     style="fill:#ed7d2b;fill-opacity:1;fill-rule:nonzero;stroke:none;stroke-width:0.13333333"
     d="m 1855.32,1476.5467 -13.0267,6.2267 c -7.76,3.7067 -17.1333,0.4 -20.8267,-7.3467 l -4.9066,-10.2533 c -3.6934,-7.7467 -0.3867,-17.12 7.36,-20.8267 l 13.04,-6.2266 c 7.7466,-3.7067 17.12,-0.3867 20.8266,7.36 l 4.8934,10.24 c 3.7066,7.76 0.4,17.1333 -7.36,20.8266"
     inkscape:connector-curvature="0" /><path
     id="path66"
     style="fill:#ffb27d;fill-opacity:1;fill-rule:nonzero;stroke:none;stroke-width:0.13333333"
     d="m 1435.9733,1654.7067 c -1.6267,-3.36 11.9333,-1.2 13.7467,-5.7066 1.8133,-4.4934 -41.7734,-1.8934 -41.7734,-1.8934 l -81.276,-77.96 c 0,0 -45.4186,7.04 -62.4186,29.2667 0,0 106.2546,64.12 136.268,67.6133 0,0 14.84,7.0934 25.9733,11.0134 11.12,3.9333 34.36,7.5333 35.6133,-1.6934 1.2667,-9.2266 -24.4933,-17.2933 -26.1333,-20.64"
     inkscape:connector-curvature="0" /><path
     id="path68"
     style="fill:#ffb27d;fill-opacity:1;fill-rule:nonzero;stroke:none;stroke-width:0.13333333"
     d="m 1816.2666,1512.3867 c 0,0 43.2,-47.7466 19.64,-58.2133 0,0 -9.6,7.1067 -18,19.64 -8.4133,12.52 -11.4533,-2.9467 -13.7466,2.6133 -2.2934,5.56 -2.6267,36.24 12.1066,35.96"
     inkscape:connector-curvature="0" /><path
     inkscape:connector-curvature="0"
     d="m 3318.2453,2189.4399 h -11.7869 l 2.7889,-158.6528 h 6.209 l 2.789,158.6528"
     style="fill:#f99746;fill-opacity:1;fill-rule:nonzero;stroke:none;stroke-width:0.20357333"
     id="path72" /><path
     inkscape:connector-curvature="0"
     d="m 3413.7165,2033.5345 h -251.6741 c -8.6262,0 -15.6955,-7.0798 -15.6955,-15.7207 v -58.8916 c 0,-8.6409 7.0693,-15.7207 15.6955,-15.7207 h 251.6741 c 8.6472,0 15.7165,7.0798 15.7165,15.7207 v 58.8916 c 0,8.6409 -7.0693,15.7207 -15.7165,15.7207"
     style="fill:#ce641d;fill-opacity:1;fill-rule:nonzero;stroke:none;stroke-width:0.21039467"
     id="path76" /><path
     inkscape:connector-curvature="0"
     d="m 2667.6145,1636.8922 -0.6874,65.3599 -4.0914,385.3606 -0.082,6.7869 h -14.3855 l -0.1309,-6.2403 -6.1045,-339.4269 v -0.013 l -2.013,-111.8271 h 27.4945"
     style="fill:#f99746;fill-opacity:1;fill-rule:nonzero;stroke:none;stroke-width:0.16365734"
     id="path80" /><path
     inkscape:connector-curvature="0"
     d="m 2556.3176,2189.4375 h -0.6193 c -1.4018,0 -2.1352,-1.6918 -1.1573,-2.7056 l 94.7962,-99.7071 7.4324,7.3737 -99.2947,94.5729 c -0.326,0.2934 -0.7335,0.4661 -1.1573,0.4661"
     style="fill:#f99746;fill-opacity:1;fill-rule:nonzero;stroke:none;stroke-width:0.162992"
     id="path84" /><path
     inkscape:connector-curvature="0"
     d="m 2755.2841,2189.4404 h 0.626 c 1.3875,0 2.1151,-1.6938 1.1506,-2.7073 l -94.788,-99.7069 -7.445,7.374 99.3058,94.5732 c 0.3046,0.2927 0.7107,0.467 1.1506,0.467"
     style="fill:#f99746;fill-opacity:1;fill-rule:nonzero;stroke:none;stroke-width:0.169204"
     id="path88" /><path
     inkscape:connector-curvature="0"
     d="m 2667.6145,1636.8922 -0.6874,65.3599 c 0,0 -17.2495,10.4544 -24.7941,46.4672 l -2.013,-111.8271 h 27.4945"
     style="fill:#ce641d;fill-opacity:1;fill-rule:nonzero;stroke:none;stroke-width:0.16365734"
     id="path92" /><path
     inkscape:connector-curvature="0"
     d="m 2790.274,1515.1088 -2.4329,8.3986 -27.1216,93.0942 -11.7191,40.2405 -2.0902,7.1856 c -2.4158,8.3061 -11.1879,13.1068 -19.4803,10.6927 L 2531.993,1617.801 c -8.2924,-2.4141 -13.0896,-11.1725 -10.6739,-19.4666 l 2.3301,-7.9875 38.8578,-133.4254 2.1759,-7.5197 c 2.4329,-8.2942 11.1879,-13.1068 19.4803,-10.6928 l 5.1571,1.4923 190.2627,55.4272 c 8.3095,2.426 13.1068,11.1862 10.691,19.4803"
     style="fill:#f99746;fill-opacity:1;fill-rule:nonzero;stroke:none;stroke-width:0.17133066"
     id="path96" /><path
     inkscape:connector-curvature="0"
     d="m 2760.7201,1616.6006 -11.7204,40.2404 -2.1002,7.1864 c -2.405,8.3058 -11.1783,13.1058 -19.4605,10.6923 l -195.4353,-56.92 c -8.2991,-2.4135 -13.0922,-11.1733 -10.6872,-19.4656 l 2.3373,-7.9875 38.8534,-133.4274 2.1848,-7.5183 c 2.422,-8.2941 11.1784,-13.1075 19.4775,-10.694 l 5.1488,1.4938 c 1.1009,42.8521 18.529,157.5728 171.4018,176.3999"
     style="fill:#f08d3e;fill-opacity:1;fill-rule:nonzero;stroke:none;stroke-width:0.16936933"
     id="path100" /><path
     inkscape:connector-curvature="0"
     d="m 2790.274,1515.1088 -2.4329,8.3986 -220.3484,-64.1719 c -1.8503,-0.5482 -3.5122,-1.3603 -4.9857,-2.414 l 2.1759,-7.5197 c 2.4158,-8.2942 11.1879,-13.1068 19.4803,-10.6928 l 195.4198,56.9195 c 8.2924,2.426 13.1068,11.1862 10.691,19.4803"
     style="fill:#ce641d;fill-opacity:1;fill-rule:nonzero;stroke:none;stroke-width:0.17133066"
     id="path104" /><path
     inkscape:connector-curvature="0"
     d="m 2749.0058,1656.8388 -2.1082,7.1862 c -2.3948,8.3061 -11.1646,13.1059 -19.4623,10.6925 l -195.4323,-56.9196 c -8.2977,-2.4134 -13.1042,-11.1731 -10.6756,-19.4674 l 2.3273,-7.9856 220.5445,64.2273 c 1.7708,0.5194 3.373,1.2918 4.8066,2.2666"
     style="fill:#ce641d;fill-opacity:1;fill-rule:nonzero;stroke:none;stroke-width:0.16865066"
     id="path108" /><path
     inkscape:connector-curvature="0"
     d="m 2571.9329,1604.464 -5.0005,-1.5867 44.1389,-130.8669 1.3623,0.4392 -40.5007,132.0144"
     style="fill:#ce641d;fill-opacity:1;fill-rule:nonzero;stroke:none;stroke-width:0.160272"
     id="path112" /><path
     inkscape:connector-curvature="0"
     d="m 2699.6302,1643.9726 -5.3064,-1.4257 41.3933,-135.068 1.4441,0.3879 -37.531,136.1058"
     style="fill:#ce641d;fill-opacity:1;fill-rule:nonzero;stroke:none;stroke-width:0.167924"
     id="path116" /><path
     inkscape:connector-curvature="0"
     d="m 3095.3342,2196.7211 h 133.7462 c 0,0 2.5576,-21.761 -0.5154,-40.3618 -0.3767,-2.2661 -1.5465,-4.2923 -3.2911,-6.0925 -7.8511,2.6527 -19.3502,4.5203 -32.138,-0.079 -10.5078,-3.761 -18.2597,-9.4947 -23.6722,-14.7069 -1.3879,1.3323 -29.0055,27.6652 -41.7932,27.6652 -13.0852,0 -33.0896,6.3086 -32.3363,33.5753"
     style="fill:#2c3a64;fill-opacity:1;fill-rule:nonzero;stroke:none;stroke-width:0.19825999"
     id="path120" /><path
     inkscape:connector-curvature="0"
     d="m 3046.4673,2196.7195 h 133.754 c 0,0 2.5384,-21.7599 -0.5272,-40.3585 -0.371,-2.267 -1.5426,-4.2938 -3.2999,-6.0941 -7.83,2.6536 -19.3504,4.5203 -32.1401,-0.08 -10.4855,-3.7607 -18.2569,-9.4936 -23.6461,-14.7071 -1.3864,1.3337 -29.0158,27.6666 -41.7859,27.6666 -13.1216,0 -33.1163,6.3069 -32.3548,33.5732"
     style="fill:#2c3a64;fill-opacity:1;fill-rule:nonzero;stroke:none;stroke-width:0.19526133"
     id="path124" /><path
     inkscape:connector-curvature="0"
     d="m 3352.7781,1805.1989 c 0,0 15.5189,95.8394 -5.7034,127.5593 -21.2017,31.7343 -291.5333,13.841 -291.5333,13.841 0,0 -9.8156,-82.1741 41.0808,-89.2 50.8757,-7.0259 256.1559,-52.2003 256.1559,-52.2003"
     style="fill:#2c3a64;fill-opacity:1;fill-rule:nonzero;stroke:none;stroke-width:0.20664398"
     id="path128" /><path
     inkscape:connector-curvature="0"
     d="m 3054.7707,1941.2004 27.9479,210.9327 c 0,0 44.9053,17.0279 71.7542,1.2679 0,0 44.6304,-222.3867 18.5469,-246.1739 -26.0835,-23.7735 -118.249,33.9733 -118.249,33.9733"
     style="fill:#2c3a64;fill-opacity:1;fill-rule:nonzero;stroke:none;stroke-width:0.196264"
     id="path132" /><path
     inkscape:connector-curvature="0"
     d="m 3425.5871,1805.2001 c 0,0 15.5167,95.84 -5.7,127.5615 -21.2166,31.732 -291.5438,13.8383 -291.5438,13.8383 0,0 -9.8166,-82.1727 41.0821,-89.1985 50.8777,-7.0278 256.1617,-52.2013 256.1617,-52.2013"
     style="fill:#35488b;fill-opacity:1;fill-rule:nonzero;stroke:none;stroke-width:0.21111067"
     id="path136" /><path
     inkscape:connector-curvature="0"
     d="m 3127.5844,1941.202 12.3048,211.3594 c 0,0 60.5404,16.6004 87.3981,0.841 0,0 44.6225,-222.3875 18.5275,-246.1741 -26.0749,-23.7725 -118.2304,33.9737 -118.2304,33.9737"
     style="fill:#35488b;fill-opacity:1;fill-rule:nonzero;stroke:none;stroke-width:0.20073067"
     id="path140" /><path
     inkscape:connector-curvature="0"
     d="m 3219.6229,1554.0016 76.9151,19.2126 2.7122,-50.8935 c 0,0 -12.5695,-14.4802 -22.7911,-40.599 -4.3113,-10.9867 -8.1975,-24.0399 -10.5252,-38.9331 l -49.3876,41.6535 c 0,0 2.5504,4.878 5.2019,12.3186 2.8742,8.0396 5.8698,19.0668 5.9913,30.2013 0.081,9.5455 -1.9836,19.1579 -8.1166,27.0396"
     style="fill:#ffb27d;fill-opacity:1;fill-rule:nonzero;stroke:none;stroke-width:0.20240799"
     id="path144" /><path
     inkscape:connector-curvature="0"
     d="m 3227.7274,1526.9599 c 31.659,-8.2394 48.7247,-45.2392 48.7247,-45.2392 l -54.6947,15.0395 c 2.8745,8.0404 5.8695,19.0678 5.97,30.1997"
     style="fill:#ea9c68;fill-opacity:1;fill-rule:nonzero;stroke:none;stroke-width:0.20100933"
     id="path148" /><path
     inkscape:connector-curvature="0"
     d="m 3208.1671,1512.7836 c 0,0 67.4334,2.0529 77.6476,-53.5484 11.0231,-60.0125 -24.1296,-93.7333 -46.3176,-91.4134 -44.2747,4.6277 -65.4715,26.8278 -69.0111,45.9211 -3.5395,19.0934 0.5461,98.2134 37.6811,99.0407"
     style="fill:#ffb27d;fill-opacity:1;fill-rule:nonzero;stroke:none;stroke-width:0.20225999"
     id="path152" /><path
     inkscape:connector-curvature="0"
     d="m 3278.5647,1479.549 c 0,0 2.3776,-23.6019 -1.2298,-35.0677 0,0 11.7036,-24.9875 0.8199,-27.9862 -10.8838,-2.9864 -13.1794,10.7321 -15.9669,8.7849 -2.7876,-1.9452 -15.8644,-42.6925 -27.3016,-38.6649 -11.4166,4.0399 -51.7131,27.5454 -74.5464,15.5467 -22.8332,-12.0008 8.4857,-86.8239 92.4605,-80.1809 83.9748,6.6409 88.1562,97.3407 25.7643,157.5681"
     style="fill:#aa443e;fill-opacity:1;fill-rule:nonzero;stroke:none;stroke-width:0.20496666"
     id="path156" /><path
     inkscape:connector-curvature="0"
     d="m 3299.3088,1347.1598 c 0,0 1.0934,-11.4015 -4.4748,-18.0671 0,0 2.2273,10.4398 -0.7694,16.014 -3.017,5.5722 5.2442,2.0531 5.2442,2.0531"
     style="fill:#aa443e;fill-opacity:1;fill-rule:nonzero;stroke:none;stroke-width:0.20247866"
     id="path160" /><path
     inkscape:connector-curvature="0"
     d="m 3295.9563,1340.133 c 0,0 9.4272,-3.3341 15.7255,3.0536 0,0 -7.8831,-3.0272 -13.6328,3.4539 l -2.0927,-6.5075"
     style="fill:#aa443e;fill-opacity:1;fill-rule:nonzero;stroke:none;stroke-width:0.20317066"
     id="path164" /><path
     inkscape:connector-curvature="0"
     d="m 3181.1958,1543.9884 c 0,0 -129.5807,51.6793 -145.2833,73.2807 -7.273,9.9861 -10.8997,24.8124 -1.4115,27.3727 10.9977,2.9738 46.5393,0.7194 63.4965,-1.9604 31.0916,-4.9068 97.411,-22.8932 97.411,-22.8932 l -14.2127,-75.7998"
     style="fill:#ffb27d;fill-opacity:1;fill-rule:nonzero;stroke:none;stroke-width:0.19603734"
     id="path168" /><path
     inkscape:connector-curvature="0"
     d="m 2936.8644,1502.5613 c 0,0 47.2466,115.4668 89.2351,139.6799 13.5502,7.8135 45.7767,0.5729 45.7767,0.5729 l -16.9236,-40.2133 -90.4979,-106.7599 -27.5903,6.7204"
     style="fill:#ffb27d;fill-opacity:1;fill-rule:nonzero;stroke:none;stroke-width:0.18845867"
     id="path172" /><path
     inkscape:connector-curvature="0"
     d="m 2964.4701,1495.8392 c 0,0 -9.6027,-40.1476 -18.7689,-41.6662 -9.1481,-1.535 -22.2427,16.4792 -23.5521,25.3726 -1.3095,8.8788 14.7132,23.0137 14.7132,23.0137 l 27.6078,-6.7201"
     style="fill:#ffb27d;fill-opacity:1;fill-rule:nonzero;stroke:none;stroke-width:0.18186933"
     id="path176" /><path
     inkscape:connector-curvature="0"
     d="m 3395.787,1615.452 -1.1778,-77.6001 c -44.9468,-25.0541 -73.9719,-24.8543 -102.2819,-25.0541 -9.1492,12.321 -21.243,31.1873 -45.1361,31.3071 -17.9619,0.08 -18.4035,-7.0522 -19.4552,-17.1458 0,0 -68.1458,16.8787 -104.8268,41.7604 0,0 -2.1874,51.1199 49.3006,79.0134 v 0 c 3.4283,82.9192 9.9064,188.745 20.591,191.7064 44.3158,12.2936 92.1651,18.8537 142.6645,7.7863 27.2584,-5.9733 92.8593,-26.8398 92.5017,-27.9208 l -32.18,-203.8528"
     style="fill:#415ba3;fill-opacity:1;fill-rule:nonzero;stroke:none;stroke-width:0.21032666"
     id="path180" /><path
     inkscape:connector-curvature="0"
     d="m 3378.2019,1555.2239 c 7.6798,-12.3586 25.384,-13.1201 34.1178,-1.48 27.7719,37.08 78.9701,108.1874 85.3376,137.2005 8.7769,40.0938 -166.3512,42.4407 -166.3512,42.4407 l 6.6901,-25.4678 c 0,0 90.8447,-26.6253 89.9627,-29.7854 -0.882,-3.1601 -66.0415,-66.2135 -69.6985,-78.4408 -2.0436,-6.787 9.3792,-27.4535 19.9415,-44.4672"
     style="fill:#ffb27d;fill-opacity:1;fill-rule:nonzero;stroke:none;stroke-width:0.21511866"
     id="path184" /><path
     inkscape:connector-curvature="0"
     d="m 3335.6462,1516.2546 c 0,0 67.354,7.9613 108.3678,67.2947 0,0 7.3262,39.8662 -41.4796,74.693 -48.8269,34.8395 -66.8882,-141.9877 -66.8882,-141.9877"
     style="fill:#415ba3;fill-opacity:1;fill-rule:nonzero;stroke:none;stroke-width:0.21173866"
     id="path188" /><path
     inkscape:connector-curvature="0"
     d="M 3325.0303,1777.8927 3206.8814,1560.359 c -0.6351,-1.1739 -0.4097,-2.6531 0.5122,-3.321 v 0 c 0.8809,-0.6392 2.1102,-0.2929 2.7657,0.7867 l 126.774,207.6262 c 2.4585,4.0401 1.9463,9.3483 -1.1678,12.028 l -2.9296,2.5199 c -2.397,2.1204 -6.0232,1.1329 -7.8056,-2.1061"
     style="fill:#f99746;fill-opacity:1;fill-rule:nonzero;stroke:none;stroke-width:0.20487066"
     id="path192" /><path
     inkscape:connector-curvature="0"
     d="m 2896.6392,1565.3449 91.7312,-229.9211 c 0.5141,-1.2394 1.7993,-2.0124 2.901,-1.7333 v 0 c 1.0466,0.2681 1.5607,1.4413 1.1567,2.6275 l -78.6031,230.213 c -1.5423,4.4801 -5.949,7.4802 -10.0067,6.8009 l -3.8191,-0.6408 c -3.1581,-0.4792 -4.7188,-3.9072 -3.36,-7.3462"
     style="fill:#f99746;fill-opacity:1;fill-rule:nonzero;stroke:none;stroke-width:0.18360934"
     id="path196" /><path
     inkscape:connector-curvature="0"
     d="m 3338.0009,1707.9191 c 0,0 -34.0353,-13.0919 -41.8991,-6.5449 -7.8433,6.5449 -26.1716,24.1995 -11.7752,33.6913 14.3965,9.5082 46.9573,-1.6793 46.9573,-1.6793 l 6.717,-25.4671"
     style="fill:#ffb27d;fill-opacity:1;fill-rule:nonzero;stroke:none;stroke-width:0.20478533"
     id="path200" /><path
     inkscape:connector-curvature="0"
     d="m 2890.968,2038.2412 -111.7723,87.2523 c -0.1241,0.094 -0.2305,0.1738 -0.3192,0.2536 l -80.4328,62.7996 c -0.7094,0.6403 -1.6494,1.0003 -2.5894,0.9879 l -3.2635,-0.041 c -1.6139,-0.027 -2.3766,-1.9864 -1.1883,-3.0931 l 106.4515,-110.1725 56.2409,-58.2273 36.8731,20.2403"
     style="fill:#f99746;fill-opacity:1;fill-rule:nonzero;stroke:none;stroke-width:0.17736"
     id="path204" /><path
     inkscape:connector-curvature="0"
     d="m 2890.968,2038.2412 -111.7723,87.2523 c 21.8508,-17.0532 18.6583,-49.2653 18.6583,-49.2653 l 56.2409,-58.2273 36.8731,20.2403"
     style="fill:#ce641d;fill-opacity:1;fill-rule:nonzero;stroke:none;stroke-width:0.17736"
     id="path208" /><path
     inkscape:connector-curvature="0"
     d="m 3293.7114,2189.4918 -3.2759,0.04 c -0.9504,0.012 -1.8603,-0.3478 -2.5681,-0.9868 l -101.9559,-79.5871 c 0,0 0,-0.014 0,-0.014 l -90.5714,-70.7059 36.8635,-20.2395 44.1634,45.7184 118.5374,122.6808 c 1.1729,1.1081 0.4045,3.0676 -1.193,3.0939"
     style="fill:#f99746;fill-opacity:1;fill-rule:nonzero;stroke:none;stroke-width:0.20221333"
     id="path212" /><path
     inkscape:connector-curvature="0"
     d="m 3221.2929,1882.8273 c 0,50.6257 -20.7112,96.6527 -54.0703,130.0138 -33.3592,33.3591 -79.3861,54.0663 -130.0177,54.0663 h -93.8128 c -7.5888,0 -13.814,-6.2133 -13.814,-13.814 v -349.3601 c 0,-7.6006 6.2252,-13.8258 13.814,-13.8258 h 84.9987 c 104.5833,0 190.4515,84.3583 192.8626,188.412 0.02,1.494 0.039,2.9999 0.039,4.5078"
     style="fill:#ed7d2b;fill-opacity:1;fill-rule:nonzero;stroke:none;stroke-width:0.19762532"
     id="path216" /><path
     inkscape:connector-curvature="0"
     d="m 2957.7545,1690.9489 -15.4057,-0.6007 0.2177,-129.3065 0.1452,-84.3468 0.036,-22.5188 h 5.734 l 0.9073,23.359 2.613,66.4406 5.7522,146.9732"
     style="fill:#ed7d2b;fill-opacity:1;fill-rule:nonzero;stroke:none;stroke-width:0.18145733"
     id="path220" /><path
     inkscape:connector-curvature="0"
     d="m 3221.2929,1882.8273 c 0,50.6257 -20.7112,96.6527 -54.0703,130.0138 -33.3592,33.3591 -79.3861,54.0663 -130.0177,54.0663 h -93.8128 c -7.5888,0 -13.814,-6.2133 -13.814,-13.814 v -98.9075 c 60.4734,-51.7996 116.8559,-101.3047 116.8559,-101.3047 h 15.7903 c 0.8102,0.745 63.9713,73.8921 159.0291,25.4383 0.02,1.494 0.039,2.9999 0.039,4.5078"
     style="fill:#ce641d;fill-opacity:1;fill-rule:nonzero;stroke:none;stroke-width:0.19762532"
     id="path224" /><path
     inkscape:connector-curvature="0"
     d="m 2741.0804,1878.4138 c 0,-104.1075 84.3986,-188.5081 188.5004,-188.5081 104.121,0 188.5005,84.4006 188.5005,188.5081 0,104.0923 -84.3795,188.4928 -188.5005,188.4928 -104.1018,0 -188.5004,-84.4005 -188.5004,-188.4928"
     style="fill:#ce641d;fill-opacity:1;fill-rule:nonzero;stroke:none;stroke-width:0.19129333"
     id="path228" /><path
     inkscape:connector-curvature="0"
     d="m 3112.1046,1878.4012 c 0,33.8665 -9.2218,65.5852 -25.2978,92.7731 -31.7511,53.7192 -90.2892,89.7604 -157.2281,89.7604 -100.8093,0 -182.5259,-81.7204 -182.5259,-182.5335 0,-39.9209 12.8303,-76.8537 34.5577,-106.8941 33.1831,-45.8129 87.0817,-75.6261 147.9682,-75.6261 100.8092,0 182.5259,81.7204 182.5259,182.5202"
     style="fill:#f99746;fill-opacity:1;fill-rule:nonzero;stroke:none;stroke-width:0.19092666"
     id="path232" /><path
     inkscape:connector-curvature="0"
     d="m 3185.8893,2108.9465 -90.5731,-70.7053 36.8625,-20.2411 44.1725,45.7204 c -0.176,0.6274 -6.1959,22.44 9.5381,45.226"
     style="fill:#ce641d;fill-opacity:1;fill-rule:nonzero;stroke:none;stroke-width:0.19545333"
     id="path236" /><path
     inkscape:connector-curvature="0"
     d="m 3086.807,1971.175 c -31.7582,53.7199 -90.2939,89.7598 -157.2189,89.7598 -100.8231,0 -182.5382,-81.7189 -182.5382,-182.5325 0,-39.9202 12.8206,-76.854 34.5609,-106.8945 18.3693,72.1745 83.2491,219.8261 305.1962,199.6672"
     style="fill:#f08d3e;fill-opacity:1;fill-rule:nonzero;stroke:none;stroke-width:0.18937466"
     id="path240" /><path
     inkscape:connector-curvature="0"
     d="m 2952.0169,1543.973 c -0.018,0.013 -0.018,0.013 -0.018,0.013 0,0 -6.2482,8.0393 -9.4175,17.0529 l 0.1449,-84.3462 c 1.1228,-0.201 2.3362,-0.1739 3.6583,0.053 1.0685,0.1992 2.0827,0.4673 3.0245,0.7878 l 2.6079,66.4403"
     style="fill:#ce641d;fill-opacity:1;fill-rule:nonzero;stroke:none;stroke-width:0.18110533"
     id="path244" /><path
     inkscape:connector-curvature="0"
     d="m 3066.9145,1509.1105 c -3.9628,9.7466 -18.4931,14.2529 -39.3828,13.8264 -26.4187,-0.534 -63.0276,-8.9465 -101.4291,-24.5732 -68.7831,-28.0001 -117.2804,-68.5604 -108.3169,-90.6257 6.8878,-16.8816 45.478,-18.0271 94.0696,-5.0668 14.8511,3.9855 30.6458,9.2655 46.7423,15.8116 68.802,28.0152 117.2993,68.5737 108.3169,90.6277"
     style="fill:#f99746;fill-opacity:1;fill-rule:nonzero;stroke:none;stroke-width:0.18870533"
     id="path248" /><path
     inkscape:connector-curvature="0"
     d="m 3027.5402,1522.9363 c -26.4307,-0.533 -63.0212,-8.947 -101.4319,-24.5732 -68.7976,-28.0001 -117.2754,-68.5599 -108.3228,-90.6275 6.8909,-16.8799 45.4688,-18.0259 94.0766,-5.0669 15.2306,28.6279 58.9535,101.8275 115.6781,120.2676"
     style="fill:#f08d3e;fill-opacity:1;fill-rule:nonzero;stroke:none;stroke-width:0.18573865"
     id="path252" /><path
     inkscape:connector-curvature="0"
     d="m 3640.3766,1693.8419 v 82.4668 c 0,0.1876 0,0.373 -0.022,0.5472 -0.268,8.3997 -7.2361,15.1601 -15.6782,15.1601 h -278.1873 c -8.4421,0 -15.3878,-6.7604 -15.6782,-15.1601 -0.022,-0.1742 -0.022,-0.3596 -0.022,-0.5472 v -82.4668 c 0,-1.3467 0.1787,-2.6666 0.5137,-3.9329 1.742,-6.747 7.9061,-11.7721 15.1868,-11.7721 h 278.1873 c 7.2808,0 13.4448,5.0251 15.2092,11.7721 0.3127,1.2663 0.4913,2.5862 0.4913,3.9329"
     style="fill:#f99746;fill-opacity:1;fill-rule:nonzero;stroke:none;stroke-width:0.223336"
     id="path256" /><path
     inkscape:connector-curvature="0"
     d="m 3640.3766,1730.9358 v 45.3729 c 0,0.1876 0,0.373 -0.022,0.5472 -0.268,8.3997 -7.2361,15.1601 -15.6782,15.1601 h -278.1873 c -8.4421,0 -15.3878,-6.7604 -15.6782,-15.1601 -0.022,-0.1742 -0.022,-0.3596 -0.022,-0.5472 v -82.4668 c 0,-1.3467 0.1787,-2.6666 0.5137,-3.9329 1.742,-6.747 7.9061,-11.7721 15.1868,-11.7721 h 73.0309 c 25.8623,17.2393 103.2929,60.4392 220.8569,52.7989"
     style="fill:#f08d3e;fill-opacity:1;fill-rule:nonzero;stroke:none;stroke-width:0.223336"
     id="path260" /><path
     inkscape:connector-curvature="0"
     d="m 3640.3766,1776.8514 c -0.2903,8.4019 -7.236,15.1601 -15.7005,15.1601 h -278.165 c -8.4644,0 -15.4101,-6.7582 -15.7005,-15.1601 h 309.566"
     style="fill:#ce641d;fill-opacity:1;fill-rule:nonzero;stroke:none;stroke-width:0.223336"
     id="path264" /><path
     inkscape:connector-curvature="0"
     d="m 3639.8986,1689.9055 h -308.6098 c 1.7641,-6.7461 7.9273,-11.7727 15.2295,-11.7727 h 278.1731 c 7.2798,0 13.443,5.0266 15.2072,11.7727"
     style="fill:#ce641d;fill-opacity:1;fill-rule:nonzero;stroke:none;stroke-width:0.22330666"
     id="path268" /><path
     inkscape:connector-curvature="0"
     d="m 3386.075,1776.854 h -3.9262 l 1.0594,-86.9453 h 1.8489 l 1.0179,86.9453"
     style="fill:#ce641d;fill-opacity:1;fill-rule:nonzero;stroke:none;stroke-width:0.20773466"
     id="path272" /><path
     inkscape:connector-curvature="0"
     d="m 3592.259,1776.8553 h -3.9228 l 1.0358,-86.9459 h 1.8512 l 1.0358,86.9459"
     style="fill:#ce641d;fill-opacity:1;fill-rule:nonzero;stroke:none;stroke-width:0.22038399"
     id="path276" /><path
     inkscape:connector-curvature="0"
     d="m 3489.1778,1776.8514 h -3.9387 l 1.0489,-86.9469 h 1.8623 l 1.0275,86.9469"
     style="fill:#ce641d;fill-opacity:1;fill-rule:nonzero;stroke:none;stroke-width:0.21405999"
     id="path280" /><path
     inkscape:connector-curvature="0"
     d="m 3497.6538,1792.0129 -0.3647,22.3206 -4.3989,273.3191 -0.1073,6.7464 h -14.3983 l -0.1503,-6.1863 -7.0167,-256.9595 -1.0515,-39.2403 h 27.4877"
     style="fill:#f99746;fill-opacity:1;fill-rule:nonzero;stroke:none;stroke-width:0.21457998"
     id="path284" /><path
     inkscape:connector-curvature="0"
     d="m 3386.3336,2189.4389 h -0.6204 c -1.3904,0 -2.1177,-1.6921 -1.1551,-2.706 l 94.8064,-99.7072 7.4228,7.3736 -99.2986,94.5733 c -0.2995,0.293 -0.7059,0.4663 -1.1551,0.4663"
     style="fill:#f99746;fill-opacity:1;fill-rule:nonzero;stroke:none;stroke-width:0.21391334"
     id="path288" /><path
     inkscape:connector-curvature="0"
     d="m 3585.313,2189.4409 h 0.6163 c 1.4088,0 2.1353,-1.6928 1.1667,-2.7076 l -94.8086,-99.7063 -7.4182,7.3742 99.2991,94.573 c 0.2862,0.2928 0.7044,0.4667 1.1447,0.4667"
     style="fill:#f99746;fill-opacity:1;fill-rule:nonzero;stroke:none;stroke-width:0.22012666"
     id="path292" /><path
     inkscape:connector-curvature="0"
     d="m 3497.6538,1792.0129 -0.3647,22.3206 c -7.0383,3.399 -17.5527,9.1733 -26.0715,16.9197 l -1.0515,-39.2403 h 27.4877"
     style="fill:#ce641d;fill-opacity:1;fill-rule:nonzero;stroke:none;stroke-width:0.21457998"
     id="path296" /><path
     id="path298"
     style="fill:#aa443e;fill-opacity:1;fill-rule:nonzero;stroke:none;stroke-width:0.13333333"
     d="m 2060.5066,1261.5334 c 0,0 -23.7333,-49.9067 -81.0533,-20.2 -57.3333,29.6933 -1.52,142.9467 -31.6,170.92 -30.0933,27.96 10.8933,46.28 4.8,66.3333 -6.1067,20.0667 11.3333,42.8667 51.4533,40.1867 40.1067,-2.68 82.36,-0.52 100.48,-35.6133 18.12,-35.0934 14,-112.32 7,-123.1734 -7,-10.8533 -51.08,-98.4533 -51.08,-98.4533"
     inkscape:connector-curvature="0" /><path
     id="path300"
     style="fill:#ffb27d;fill-opacity:1;fill-rule:nonzero;stroke:none;stroke-width:0.13333333"
     d="m 2153.3999,1527.7867 -97.4666,-58.8133 c 0.5333,-0.2267 2.5066,-3.16 9.8,-24.2533 3.0933,-8.9867 4.7466,-16.7867 5.56,-22.96 0.08,-0.6267 0.16,-1.2134 0.2133,-1.8134 1,-8.9866 0.2667,-14.1733 0.2667,-14.1733 l 21.36,7.72 39.4933,14.3067 c -0.4667,10.0133 0.9333,17.0666 3.0667,21.8933 5.16,11.7467 14.7733,11.8267 15.04,11.8267 l 2.6666,66.2666"
     inkscape:connector-curvature="0" /><path
     id="path302"
     style="fill:#ed985f;fill-opacity:1;fill-rule:nonzero;stroke:none;stroke-width:0.13333333"
     d="m 2135.6933,1449.6934 c -38.16,3.24 -59.6534,-21.6533 -64.4,-27.9333 -0.7067,-0.92 -1.0534,-1.44 -1.0534,-1.44 0,0 0.4534,-0.1334 1.2667,-0.3734 3.1067,-0.92 11.52,-3.4533 21.6267,-6.4533 l 39.4933,14.3067 c -0.4667,10.0133 0.9333,17.0666 3.0667,21.8933"
     inkscape:connector-curvature="0" /><path
     inkscape:connector-curvature="0"
     d="m 2137.6163,1435.9867 c 0,0 -84.8005,9.3074 -86.5409,-48.0259 -1.7405,-57.3401 -14.2718,-83.5768 44.4084,-88.6911 58.6668,-5.1008 72.5101,16.0256 75.9777,35.4237 10.8042,60.6134 -9.9608,98.7214 -33.8452,101.2933"
     style="fill:#ffb27d;fill-opacity:1;fill-rule:nonzero;stroke:none;stroke-width:0.13388133"
     id="path306" /><path
     id="path308"
     style="fill:#d35c2b;fill-opacity:1;fill-rule:nonzero;stroke:none;stroke-width:0.13333333"
     d="m 1979.4533,1241.3334 c -1.1867,-2.6533 -2.0267,-4.3867 -2.0267,-4.3867 0.88,1.2267 1.5467,2.72 2.0267,4.3867"
     inkscape:connector-curvature="0" /><path
     inkscape:connector-curvature="0"
     d="m 2100.0115,1327.2874 c -29.9897,-7.5964 -18.5199,45.5716 -26.0986,41.9314 -8.4872,-4.0796 -23.0617,-4.0131 -20.7569,6.227 2.2912,10.2388 5.6129,13.9062 7.3483,20.3068 1.7218,6.3857 -0.014,19.0527 -6.9958,16.5052 -6.9687,-2.5597 -71.8696,-76.6527 -26.0444,-134.3775 45.8251,-57.7152 182.4464,-22.1533 139.4141,38.2138 -7.5516,10.6185 -45.4862,16.6028 -66.8667,11.1933"
     style="fill:#aa443e;fill-opacity:1;fill-rule:nonzero;stroke:none;stroke-width:0.13557734"
     id="path312" /><path
     inkscape:connector-curvature="0"
     d="m 2324.17,1473.963 c 0,0 -1.0138,-24.892 6.5608,-33.479 7.5747,-8.587 17.6839,-9.9731 20.6819,-2.5737 9.3271,23.186 -7.5602,42.8801 -7.5602,42.8801 l -19.6825,-6.8274"
     style="fill:#ffb27d;fill-opacity:1;fill-rule:nonzero;stroke:none;stroke-width:0.14483066"
     id="path316" /><path
     inkscape:connector-curvature="0"
     d="m 2132.3746,1467.1916 c 0,0 5.0083,76.9461 116.8166,123.1719 10.952,4.5205 23.4871,3.3072 33.331,-3.2927 16.9676,-11.3593 43.2179,-38.0399 61.337,-106.2791 1.9716,-7.4405 -17.1117,-11.2399 -17.1117,-11.2399 1.4248,0.9729 -36.7849,42.7992 -56.5877,60.1065 -3.5691,3.1201 -9.9734,2.0393 -13.5425,-1.1067 -9.2107,-8.1471 -25.1997,-21.881 -33.6764,-26.9468 -12.3911,-7.4002 -81.5572,-54.4132 -90.5663,-34.4132"
     style="fill:#ffb27d;fill-opacity:1;fill-rule:nonzero;stroke:none;stroke-width:0.143916"
     id="path320" /><path
     inkscape:connector-curvature="0"
     d="m 2210.845,2151.8423 -44.8273,11.8924 c 0,0 -27.561,-95.9859 -33.4068,-162.6924 -0.9088,-10.1197 -1.2885,-19.5463 -1.0173,-27.8932 1.3021,-38.1731 -79.8074,-197.2929 -24.3464,-233.4517 38.154,-24.8673 93.5879,-4.1342 93.5879,-4.1342 0,0 7.7176,202.2395 7.7176,240.1995 0,5.1731 0.054,12.1868 0.1085,20.4659 0.4748,52.5341 2.1838,155.6137 2.1838,155.6137"
     style="fill:#ffb27d;fill-opacity:1;fill-rule:nonzero;stroke:none;stroke-width:0.13563466"
     id="path324" /><path
     id="path326"
     style="fill:#ffb27d;fill-opacity:1;fill-rule:nonzero;stroke:none;stroke-width:0.13333333"
     d="m 2125.6666,1747.5334 c 0,0 -36.5333,205.5467 -45.2533,251.4133 -0.72,3.7067 -1.2534,6.3733 -1.5467,7.8 -4.1333,19.0933 -24.7733,149.8267 -24.7733,149.8267 l -44.6134,-2.3467 c 0,0 -13.4399,-96.08 -10.5999,-165.0133 0.7066,-16.88 2.3866,-32.1333 5.4666,-43.9467 15.7067,-60.0666 -20.5733,-208.4933 36.84,-243.3333 57.4133,-34.84 84.48,45.6 84.48,45.6"
     inkscape:connector-curvature="0" /><path
     id="path328"
     style="fill:#ffffff;fill-opacity:1;fill-rule:nonzero;stroke:none;stroke-width:0.13333333"
     d="m 2132.3866,1402.6534 c 0,-3.5467 7.7733,-6.6533 13.2533,-6.6533 5.48,0 12.7867,3.36 12.44,5.88 -0.8133,5.8533 -6.96,10.7066 -12.44,10.7066 -5.48,0 -13.2533,-4.4533 -13.2533,-9.9333"
     inkscape:connector-curvature="0" /><path
     id="path330"
     style="fill:#ffb27d;fill-opacity:1;fill-rule:nonzero;stroke:none;stroke-width:0.13333333"
     d="m 2011.2133,1477.3201 c 0,0 -64.1333,127.9733 -79.84,143.68 -15.7067,15.72 -71.1333,66.3333 -90.3333,80.5866 0,0 -58.9067,16.8267 -57.6,23.76 1.3066,6.9334 41.0266,5.6267 45.3866,7.3734 4.36,1.7333 -8.7333,12.6533 2.1734,12.2133 7.16,-0.2933 14.32,-12.9733 18.4,-21.6667 v 0 c 0,0 100.2933,-49.0266 115.1333,-56.88 14.84,-7.8533 59.3466,-63.7066 67.2,-87.2666 7.8533,-23.5734 -20.52,-101.8 -20.52,-101.8"
     inkscape:connector-curvature="0" /><path
     inkscape:connector-curvature="0"
     d="m 2243.3137,1572.6929 c 11.9543,-29.5606 4.8564,-59.694 4.8564,-59.694 -41.5218,-46.8529 -67.5612,-51.2264 -76.3609,-51.0922 -29.1386,-5.4403 -83.0851,-1.6548 -112.542,1.0792 0.028,-0.4663 0.042,-0.7195 0.042,-0.7195 0,0 -47.3744,3.679 -60.823,19.3594 0,0 -0.028,0.014 -0.042,0.053 -13.504,15.7883 -61.3627,96.1215 -61.3627,96.1215 0,0 -2.2829,19.6264 19.5088,40.9324 7.7896,7.6001 18.6371,15.4272 33.7875,22.6412 4.0678,1.9329 7.8865,2.7064 11.5115,2.4656 v 0 l -44.3443,214.8274 c 16.4648,26.9069 50.7781,44.4523 90.0031,55.2527 81.84,22.5209 185.1534,15.7066 193.1229,3.3207 8.1771,-51.6803 -3.7634,-200.4408 -20.2974,-313.1073 11.2625,-9.3061 18.4572,-20.3334 22.9401,-31.4396"
     style="fill:#f99746;fill-opacity:1;fill-rule:nonzero;stroke:none;stroke-width:0.13835999"
     id="path334" /><path
     id="path336"
     style="fill:#aa443e;fill-opacity:1;fill-rule:nonzero;stroke:none;stroke-width:0.13333333"
     d="m 2080.4133,1998.9467 c -0.72,3.7067 -1.2534,6.3733 -1.5467,7.8 -4.1333,19.0933 -24.7733,149.8267 -24.7733,149.8267 l -44.6134,-2.3467 c 0,0 -13.4399,-96.08 -10.5999,-165.0133 11.7199,5.52 35.3599,11.6666 81.5333,9.7333"
     inkscape:connector-curvature="0" /><path
     id="path338"
     style="fill:#35488b;fill-opacity:1;fill-rule:nonzero;stroke:none;stroke-width:0.13333333"
     d="m 2117.7466,2189.3067 h -111.6667 c 0,0 -2.12,-18.1733 0.44,-33.6933 0.3067,-1.8934 1.2934,-3.5867 2.76,-5.0934 6.5334,2.2134 16.1467,3.7734 26.8267,-0.067 8.76,-3.1334 15.24,-7.92 19.7467,-12.28 1.16,1.12 24.2266,23.1066 34.8933,23.1066 10.9333,0 27.64,5.2667 27,28.0267"
     inkscape:connector-curvature="0" /><path
     inkscape:connector-curvature="0"
     d="m 2210.845,2151.8423 -44.8273,11.8924 c 0,0 -27.561,-95.9859 -33.4068,-162.6924 18.4463,1.3333 50.5375,2.3207 76.0503,-4.8137 0.4748,52.5341 2.1838,155.6137 2.1838,155.6137"
     style="fill:#aa443e;fill-opacity:1;fill-rule:nonzero;stroke:none;stroke-width:0.13563466"
     id="path342" /><path
     inkscape:connector-curvature="0"
     d="m 2272.2227,2189.3082 h -111.6625 c 0,0 -2.1334,-18.1744 0.4183,-33.6939 0.3207,-1.8936 1.2968,-3.5864 2.7609,-5.0937 6.5536,2.2128 16.147,3.7732 26.828,-0.067 8.7568,-3.1332 15.2407,-7.9201 19.7585,-12.2789 1.1573,1.1196 24.2344,23.1063 34.9015,23.1063 10.932,0 27.6228,5.2666 26.9953,28.0272"
     style="fill:#35488b;fill-opacity:1;fill-rule:nonzero;stroke:none;stroke-width:0.13943866"
     id="path346" /><path
     id="path348"
     style="fill:#ed7d2b;fill-opacity:1;fill-rule:nonzero;stroke:none;stroke-width:0.13333333"
     d="m 2047.5466,1913.9201 c -39.2267,-10.8 -73.5333,-28.3467 -90,-55.2534 l 44.3467,-214.8266 c 0,0 97.5466,195.32 45.6533,270.08"
     inkscape:connector-curvature="0" /><path
     id="path350"
     style="fill:#ed7d2b;fill-opacity:1;fill-rule:nonzero;stroke:none;stroke-width:0.13333333"
     d="m 1998.48,1481.6267 c 0,0 -8.7734,111.72 -41.8934,137.1067 -21.7866,-21.3067 -19.5066,-40.9333 -19.5066,-40.9333 0,0 47.8533,-80.3334 61.36,-96.12 0.013,-0.04 0.04,-0.053 0.04,-0.053"
     inkscape:connector-curvature="0" /><path
     inkscape:connector-curvature="0"
     d="m 2243.3146,1572.6889 c -4.528,11.2675 -11.8497,22.4414 -23.3828,31.8275 -2.8351,-9.9201 -8.3264,-32.4799 -1.2111,-36.5343 9.1659,-5.2395 24.5939,4.7068 24.5939,4.7068"
     style="fill:#ed7d2b;fill-opacity:1;fill-rule:nonzero;stroke:none;stroke-width:0.13762666"
     id="path354" /><path
     inkscape:connector-curvature="0"
     d="m 2455.9393,2168.1214 c 0.5576,4.6402 -24.3239,6.1608 -25.0322,0.5471 l -82.4961,-650.4367 -13.8799,-109.4407 h 4.3553 l 14.9651,97.0271 102.0878,662.3032"
     style="fill:#f99746;fill-opacity:1;fill-rule:nonzero;stroke:none;stroke-width:0.15070532"
     id="path358" /><path
     inkscape:connector-curvature="0"
     d="m 2353.8504,1505.8141 c 0,0 -2.7293,4.2543 -5.4442,12.4133 l -13.8631,-109.4396 h 4.3466 l 14.9607,97.0263"
     style="fill:#ce641d;fill-opacity:1;fill-rule:nonzero;stroke:none;stroke-width:0.144408"
     id="path362" /><path
     inkscape:connector-curvature="0"
     d="m 2281.5325,1378.7433 c -8.1596,-7.3863 -8.7851,-20.001 -1.3931,-28.1606 7.4062,-8.1738 20.0152,-8.7993 28.1748,-1.4002 8.1596,7.3877 8.7851,20.001 1.3931,28.1606 -7.3778,8.1738 -20.001,8.7993 -28.1748,1.4002"
     style="fill:#f99746;fill-opacity:1;fill-rule:nonzero;stroke:none;stroke-width:0.14215332"
     id="path366" /><path
     inkscape:connector-curvature="0"
     d="m 2407.6186,1460.4247 -3.5007,3.8802 -19.1723,-15.227 5.5981,-6.1609 17.0749,17.5077"
     style="fill:#ce641d;fill-opacity:1;fill-rule:nonzero;stroke:none;stroke-width:0.14770666"
     id="path370" /><path
     inkscape:connector-curvature="0"
     d="m 2313.14,1352.9988 43.7111,43.773 13.9764,13.9602 2.7687,2.7864 26.9808,26.9866 -16.3917,18.106 -30.3239,-23.2665 -3.1222,-2.4124 -15.7289,-12.0411 -49.1898,-37.72 27.3195,-30.1722"
     style="fill:#ed7d2b;fill-opacity:1;fill-rule:nonzero;stroke:none;stroke-width:0.14727466"
     id="path374" /><path
     inkscape:connector-curvature="0"
     d="m 2314.6161,1353.1598 -28.4954,31.4812 c -0.8097,0.8935 -2.2018,0.9589 -3.0967,0.1463 v 0 c -0.9091,-0.8139 -0.9659,-2.2003 -0.1563,-3.0938 l 28.4954,-31.4799 c 0.8097,-0.8935 2.2018,-0.9602 3.0967,-0.1463 v 0 c 0.8949,0.8125 0.966,2.2004 0.1563,3.0925"
     style="fill:#d36820;fill-opacity:1;fill-rule:nonzero;stroke:none;stroke-width:0.14205065"
     id="path378" /><path
     inkscape:connector-curvature="0"
     d="m 2373.5962,1413.5184 26.9808,26.9866 -16.3917,18.106 -30.3239,-23.2665 19.7348,-21.8261"
     style="fill:#ce641d;fill-opacity:1;fill-rule:nonzero;stroke:none;stroke-width:0.14727466"
     id="path382" /><path
     inkscape:connector-curvature="0"
     d="m 2319.2377,1408.7839 c 0.5354,0.4124 7.3507,26.2133 39.3288,30.1723 l -39.3288,-30.1723"
     style="fill:#ce641d;fill-opacity:1;fill-rule:nonzero;stroke:none;stroke-width:0.14469732"
     id="path386" /><path
     inkscape:connector-curvature="0"
     d="m 2498.8552,2189.3072 h -109.3517 c 1.1191,-7.2942 4.5684,-13.828 9.5661,-18.8273 6.1475,-6.1475 14.5792,-9.9326 23.9155,-9.9326 h 42.3885 c 16.8941,0 31.0134,12.5188 33.4816,28.7599"
     style="fill:#ed7d2b;fill-opacity:1;fill-rule:nonzero;stroke:none;stroke-width:0.153304"
     id="path390" /><path
     inkscape:connector-curvature="0"
     d="m 2459.0832,2189.3058 h -69.5785 c 1.1315,-7.2927 4.5712,-13.8266 9.5648,-18.8263 6.1402,-6.1462 14.5885,-9.9329 23.927,-9.9329 h 2.61 c 16.8967,0 31.0025,12.5202 33.4767,28.7592"
     style="fill:#ce641d;fill-opacity:1;fill-rule:nonzero;stroke:none;stroke-width:0.15086401"
     id="path394" /><path
     id="path396"
     style="fill:#2c3a64;fill-opacity:1;fill-rule:nonzero;stroke:none;stroke-width:0.13333333"
     d="m 804.49465,1287.3201 c 0,0 -84.27067,-25.8534 -134.82533,44.04 -50.55467,69.88 31.568,148.44 42.54933,169.3733 10.98,20.9467 -19.19467,60.0667 16.70933,85.1067 35.904,25.0533 18.75067,44.3866 45.17067,54.8 26.42,10.4 39.012,7.3333 75.09333,-23.8534 36.08133,-31.1733 1.3,-325.0933 -44.69733,-329.4666"
     inkscape:connector-curvature="0" /><path
     id="path398"
     style="fill:#ed985f;fill-opacity:1;fill-rule:nonzero;stroke:none;stroke-width:0.13333333"
     d="m 1019.736,1502.0534 c 0,0 67.5693,33.7867 71.5893,44.1467 4.02,10.36 -36.1747,32.1733 -84.9133,0.7866 -48.74136,-31.3733 13.324,-44.9333 13.324,-44.9333"
     inkscape:connector-curvature="0" /><path
     id="path400"
     style="fill:#ffb27d;fill-opacity:1;fill-rule:nonzero;stroke:none;stroke-width:0.13333333"
     d="m 939.60131,1533.5334 -107.21733,-38.2933 c 0.48667,-0.32 1.83333,-3.5867 4.78933,-25.7067 1.25734,-9.4267 1.32134,-17.4 0.88667,-23.6133 -0.0427,-0.6267 -0.0813,-1.2267 -0.14667,-1.8134 -0.80666,-9.0133 -2.55066,-13.9466 -2.55066,-13.9466 l 22.46133,3.32 41.54666,6.1866 c 1.54,9.9067 4.31467,16.5334 7.364,20.84 7.38534,10.4934 16.82,8.6534 17.08534,8.6 l 15.78133,64.4267"
     inkscape:connector-curvature="0" /><path
     id="path402"
     style="fill:#ed985f;fill-opacity:1;fill-rule:nonzero;stroke:none;stroke-width:0.13333333"
     d="m 906.73464,1460.5067 c -36.76533,10.76 -62.76799,-9.3733 -68.67466,-14.5866 -0.86933,-0.76 -1.31467,-1.2 -1.31467,-1.2 0,0 0.42267,-0.2134 1.168,-0.6134 2.86,-1.52 10.61067,-5.68 19.91067,-10.6266 l 41.54666,6.1866 c 1.54,9.9067 4.31467,16.5334 7.364,20.84"
     inkscape:connector-curvature="0" /><path
     id="path404"
     style="fill:#ffb27d;fill-opacity:1;fill-rule:nonzero;stroke:none;stroke-width:0.13333333"
     d="m 905.88664,1446.6934 c 0,0 -81.25999,25.9733 -94.35066,-29.88 -13.08933,-55.8533 -30.58667,-79.08 25.90267,-95.7467 56.48933,-16.6533 74.26933,1.3067 81.51066,19.6267 22.62267,57.2533 9.84,98.7333 -13.06267,106"
     inkscape:connector-curvature="0" /><path
     id="path406"
     style="fill:#d35c2b;fill-opacity:1;fill-rule:nonzero;stroke:none;stroke-width:0.13333333"
     d="m 712.21865,1287.3201 c -1.688,-2.36 -2.856,-3.88 -2.856,-3.88 1.10933,1.0266 2.05333,2.3466 2.856,3.88"
     inkscape:connector-curvature="0" /><path
     id="path408"
     style="fill:#2c3a64;fill-opacity:1;fill-rule:nonzero;stroke:none;stroke-width:0.13333333"
     d="m 847.46798,1347.6134 c -30.916,-1.48 -9.112,48.3467 -17.26667,46.28 -9.124,-2.3067 -23.39733,0.6533 -19.10933,10.24 4.288,9.5733 8.27067,12.5067 11.23867,18.4267 2.96666,5.9333 3.772,18.68 -3.57334,17.5733 -7.344,-1.12 -85.66133,-60.8533 -52.21866,-126.52 33.44266,-65.6667 174.41066,-57.96 144.23599,9.76 -5.30666,11.9067 -41.29066,25.3067 -63.30666,24.24"
     inkscape:connector-curvature="0" /><path
     id="path410"
     style="fill:#ffb27d;fill-opacity:1;fill-rule:nonzero;stroke:none;stroke-width:0.13333333"
     d="m 1113.368,2144.2 -42.2534,19.1467 c 0,0 -43.0373,-90.1333 -59.828,-154.9467 -2.564,-9.8266 -4.4973,-19.0666 -5.6026,-27.3466 -5.0294,-37.8533 -111.30136,-181.3867 -62.58536,-226.2133 33.52667,-30.84 91.61736,-19.5467 91.61736,-19.5467 0,0 41.0306,198.1867 47.3026,235.6267 0.8547,5.1066 2.0534,12.0133 3.484,20.16 9.144,51.7466 27.8654,153.1199 27.8654,153.1199"
     inkscape:connector-curvature="0" /><path
     id="path412"
     style="fill:#ffb27d;fill-opacity:1;fill-rule:nonzero;stroke:none;stroke-width:0.13333333"
     d="m 976.37064,1748.5867 c 0,0 -36.524,205.5467 -45.256,251.4134 -0.72,3.7066 -1.24266,6.3733 -1.544,7.7999 -4.124,19.0934 -24.768,149.8267 -24.768,149.8267 l -44.61333,-2.3467 c 0,0 -13.444,-96.08 -10.604,-165.0133 0.708,-16.88 2.384,-32.1333 5.472,-43.9466 15.70933,-60.0667 -20.57866,-208.4934 36.83733,-243.3334 57.41734,-34.84 84.476,45.6 84.476,45.6"
     inkscape:connector-curvature="0" /><path
     id="path414"
     style="fill:#aa443e;fill-opacity:1;fill-rule:nonzero;stroke:none;stroke-width:0.13333333"
     d="m 1090.9533,1853.4934 c -5.3373,13.72 -93.73466,85.32 -178.39999,79.5067 -25.06533,-1.7334 -48.788,-6.3467 -68.31866,-15.0534 -12.12667,-5.4133 -22.644,-12.3866 -30.86934,-21.24 l 30.10534,-185.4933 c 2.092,-12.96 -6.08934,-44.8 -14.616,-59.6267 -1.05734,-1.8533 -2.12267,-3.44 -3.17867,-4.68 l -29.15067,-63.6666 18.28934,-88.3867 c 0,0 7.636,-2.5067 19.476,-6.08 11.44666,10.8933 38.25333,24.0667 72.73999,21.3067 32.88934,-2.6267 20.388,-24.5734 10.208,-41.8667 18.308,-3.08 34.27734,-4.16 42.82267,-1.0667 12.536,4.5067 38.28133,67.0134 43.27599,172.1467 1.2347,26.0133 85.512,165.3333 87.616,214.2"
     inkscape:connector-curvature="0" /><path
     id="path416"
     style="fill:#f99746;fill-opacity:1;fill-rule:nonzero;stroke:none;stroke-width:0.13333333"
     d="m 931.11464,2000.0001 c -0.72,3.7066 -1.24266,6.3733 -1.544,7.7999 -4.124,19.0934 -24.768,149.8267 -24.768,149.8267 l -44.61333,-2.3467 c 0,0 -13.444,-96.08 -10.604,-165.0133 11.71734,5.52 35.35867,11.6667 81.52933,9.7334"
     inkscape:connector-curvature="0" /><path
     id="path418"
     style="fill:#993533;fill-opacity:1;fill-rule:nonzero;stroke:none;stroke-width:0.13333333"
     d="m 844.23465,1917.9467 c -12.12667,-5.4133 -22.644,-12.3866 -30.86934,-21.24 l 30.10534,-185.4933 c 2.092,-12.96 -6.08934,-44.8 -14.616,-59.6267 7.168,-3.1866 14.528,-4.3733 21.95866,-3.1866 0,0 136.87333,182.6533 -6.57866,269.5466"
     inkscape:connector-curvature="0" /><path
     id="path420"
     style="fill:#35488b;fill-opacity:1;fill-rule:nonzero;stroke:none;stroke-width:0.13333333"
     d="M 968.45998,2190.36 H 856.79331 c 0,0 -2.13066,-18.1733 0.43467,-33.6933 0.308,-1.8933 1.292,-3.5867 2.75733,-5.0933 6.54,2.2133 16.144,3.7733 26.82933,-0.067 8.75734,-3.1333 15.23734,-7.92 19.75067,-12.28 1.15733,1.12 24.22533,23.1067 34.892,23.1067 10.93467,0 27.63867,5.2666 27.00267,28.0266"
     inkscape:connector-curvature="0" /><path
     id="path422"
     style="fill:#f99746;fill-opacity:1;fill-rule:nonzero;stroke:none;stroke-width:0.13333333"
     d="m 1113.368,2144.2 -42.2534,19.1467 c 0,0 -43.0373,-90.1333 -59.828,-154.9467 18.4227,-1.7466 50.232,-6.0666 74.216,-17.3199 9.144,51.7466 27.8654,153.1199 27.8654,153.1199"
     inkscape:connector-curvature="0" /><path
     id="path424"
     style="fill:#35488b;fill-opacity:1;fill-rule:nonzero;stroke:none;stroke-width:0.13333333"
     d="m 1180.0813,2171.0134 -110.132,18.44 c 0,0 -5.104,-17.56 -5.1387,-33.2934 -0.01,-1.92 0.6814,-3.76 1.8787,-5.48 6.8147,1.1067 16.5467,1.0534 26.4507,-4.4933 8.1173,-4.5467 13.7186,-10.3333 17.4493,-15.3733 1.3267,0.9066 27.7107,18.7866 38.2293,17.0133 10.7867,-1.8 28.1294,0.6267 31.2627,23.1867"
     inkscape:connector-curvature="0" /><path
     id="path426"
     style="fill:#ffb27d;fill-opacity:1;fill-rule:nonzero;stroke:none;stroke-width:0.13333333"
     d="m 774.09865,1592.6934 c 0,0 51.83066,93.04 123.88533,103.0133 l 12.20933,-29.5333 c 0,0 -67.32266,-80.5067 -77.64933,-85.3333 -10.32667,-4.8134 -57.47067,0.5333 -58.44533,11.8533"
     inkscape:connector-curvature="0" /><path
     id="path428"
     style="fill:#aa443e;fill-opacity:1;fill-rule:nonzero;stroke:none;stroke-width:0.13333333"
     d="m 814.80798,1494.8667 c 0,0 -89.64133,28.48 -37.13733,115.4534 0,0 47.76,17.8133 87.16266,-10.88 33.216,-24.1734 -50.02533,-104.5734 -50.02533,-104.5734"
     inkscape:connector-curvature="0" /><path
     id="path430"
     style="fill:#aa443e;fill-opacity:1;fill-rule:nonzero;stroke:none;stroke-width:0.13333333"
     d="m 960.05998,1467.1334 c 0,0 53.76262,31.76 59.67602,34.92 0,0 0.2533,71.52 -36.42136,79.84 -36.67466,8.32 -23.25466,-114.76 -23.25466,-114.76"
     inkscape:connector-curvature="0" /><path
     id="path432"
     style="fill:#ffb27d;fill-opacity:1;fill-rule:nonzero;stroke:none;stroke-width:0.13333333"
     d="m 897.98398,1695.7067 c 0,0 62.01466,-35.1866 86.23066,-69.4666 l -9.92666,-9.4534 c 0,0 -87.00934,20.1867 -95.61467,33.5067 -8.60533,13.32 19.31067,45.4133 19.31067,45.4133"
     inkscape:connector-curvature="0" /><path
     id="path434"
     style="fill:#ffb27d;fill-opacity:1;fill-rule:nonzero;stroke:none;stroke-width:0.13333333"
     d="m 1000.108,1515.7201 c 0,0 83.2146,12.96 91.2173,30.48 8.004,17.52 -18.8093,34.1733 -71.8827,-5.8267 l -19.3346,-24.6533"
     inkscape:connector-curvature="0" /><path
     id="path436"
     style="fill:#ed7d2b;fill-opacity:1;fill-rule:nonzero;stroke:none;stroke-width:0.13333333"
     d="m 918.61331,1413.7201 c 0.88533,4.36 -1.93467,8.6133 -6.29733,9.4933 -4.36267,0.88 -8.61467,-1.9333 -9.49867,-6.2933 -0.884,-4.36 1.93467,-8.6134 6.29733,-9.5067 4.36267,-0.88 8.61467,1.9333 9.49867,6.3067"
     inkscape:connector-curvature="0" /><path
     id="path438"
     style="fill:#f99746;fill-opacity:1;fill-rule:nonzero;stroke:none;stroke-width:0.13333333"
     d="m 1150.7613,1559.5334 c 4.364,22.0667 7.04,72.12 -9.3467,103.3067 h -0.013 c -2.9,5.52 -6.4,10.4666 -10.6067,14.5466 -38.8146,37.7067 -93.6106,14.88 -119.784,-30.3733 0,-0.013 -0.016,-0.013 -0.019,-0.027 -0.244,-0.4133 -0.492,-0.8533 -0.724,-1.2666 -3.5307,-6.28 -6.508,-13 -8.8267,-20.0267 -11.82399,-35.9333 -18.33332,-83.2267 -22.37466,-119.24 -3.45066,-30.7467 -10.112,-53.3333 -12.71066,-61.8 -7.516,-24.5733 -36.93867,-26.4133 -52.71867,-24.7867 -0.10533,0.013 -0.21067,0.013 -0.3,0.04 -4.97333,2.6934 -6.72,-2.3733 -6.72,-2.3733 -0.56933,-2.8133 1.31867,-5.5467 4.15733,-5.9733 5.84667,-0.8934 15.96,-2.0534 26.876,-1.5334 30.996,1.4934 43.2,15.1867 47.97067,26.4 4.07467,9.5734 13.896,30.0134 22.28129,61.84 9.152,34.7467 12.9747,54.1467 32.4507,90.2667 9.7573,18.0933 17.2867,22.04 21.62,17.7733 3.7133,-3.6266 5.0987,-13.2 3.5947,-25.04 -0.2747,-2.1466 -0.6454,-4.36 -1.1187,-6.64 -4.384,-21.24 83.3187,-30.2 86.312,-15.0933"
     inkscape:connector-curvature="0" /><path
     id="path440"
     style="fill:#ed7d2b;fill-opacity:1;fill-rule:nonzero;stroke:none;stroke-width:0.13333333"
     d="m 1142.5706,1628.9201 c -27.6173,9.8266 -80.5946,-22.6 -80.5946,-22.6 0,0 0,0 0,-0.013 3.7133,-3.6266 5.0987,-13.2 3.5947,-25.04 13.1693,-0.4533 95.4493,41.0934 77.0026,47.6534"
     inkscape:connector-curvature="0" /><path
     id="path442"
     style="fill:#f99746;fill-opacity:1;fill-rule:nonzero;stroke:none;stroke-width:0.13333333"
     d="m 1158.3346,1531.2401 c 25.5734,28.9466 28.0107,68.5733 5.4414,88.52 -22.568,19.9333 -61.5947,12.6266 -87.1694,-16.3334 -25.5746,-28.9466 -28.0106,-68.5733 -5.4413,-88.52 22.568,-19.9333 61.5947,-12.6266 87.1693,16.3334"
     inkscape:connector-curvature="0" /><path
     id="path444"
     style="fill:#ed7d2b;fill-opacity:1;fill-rule:nonzero;stroke:none;stroke-width:0.13333333"
     d="m 1156.288,1591.2667 c -0.031,0.08 -0.064,0.1467 -0.1094,0.24 -1.7226,3.52 -4.088,6.68 -7.108,9.36 -15.6946,13.8667 -42.8146,8.7867 -60.5933,-11.3466 -3.076,-3.48 -5.6507,-7.16 -7.7427,-10.96 -1.484,-2.6934 -2.7266,-5.4534 -3.7146,-8.2134 -5.8027,-15.9866 -3.3747,-32.5733 7.6773,-42.3466 15.6987,-13.84 42.8027,-8.76 60.5933,11.3466 14.2694,16.1734 18.168,37.1334 10.9974,51.92"
     inkscape:connector-curvature="0" /><path
     id="path446"
     style="fill:#d3671e;fill-opacity:1;fill-rule:nonzero;stroke:none;stroke-width:0.13333333"
     d="m 1156.288,1591.2667 c -0.031,0.08 -0.064,0.1467 -0.1094,0.24 -1.7226,3.52 -4.088,6.68 -7.108,9.36 -15.6946,13.8667 -42.8146,8.7867 -60.5933,-11.3466 -3.076,-3.48 -5.6507,-7.16 -7.7427,-10.96 -1.484,-2.6934 -2.7266,-5.4534 -3.7146,-8.2134 1.5866,-2.6133 3.5706,-4.9866 5.9173,-7.0666 16.2893,-14.3734 44.452,-9.1067 62.924,11.7866 4.4627,5.0534 7.9467,10.56 10.4267,16.2"
     inkscape:connector-curvature="0" /><path
     id="path448"
     style="fill:#ed7d2b;fill-opacity:1;fill-rule:nonzero;stroke:none;stroke-width:0.13333333"
     d="m 1010.268,1645.7201 c -3.5307,-6.28 -6.508,-13 -8.8267,-20.0267 -11.82399,-35.9333 -18.33332,-83.2267 -22.37466,-119.24 -3.45066,-30.7467 -10.112,-53.3333 -12.71066,-61.8 -7.516,-24.5733 -36.93867,-26.4133 -52.71867,-24.7867 13.56667,-1.6666 45.02667,-3.4266 56.50133,13.9867 14.464,21.9333 29.40134,189.9067 40.12936,211.8667"
     inkscape:connector-curvature="0" /><path
     id="path450"
     style="fill:#ed7d2b;fill-opacity:1;fill-rule:nonzero;stroke:none;stroke-width:0.13333333"
     d="m 1141.4013,1662.8401 c -2.9,5.52 -6.4,10.4666 -10.6067,14.5466 -38.8146,37.7067 -93.6106,14.88 -119.784,-30.3733 10.8094,15.5067 75.0094,60.4267 130.3907,15.8267"
     inkscape:connector-curvature="0" /><path
     id="path452"
     style="fill:#ffb27d;fill-opacity:1;fill-rule:nonzero;stroke:none;stroke-width:0.13333333"
     d="m 974.80398,1612.8934 c 0,0 17.65866,-45.8133 29.04932,-32.8267 8.7067,9.92 9.9853,34.0934 -16.04666,45.2 -26.03333,11.1067 -13.00266,-12.3733 -13.00266,-12.3733"
     inkscape:connector-curvature="0" /><path
     id="path454"
     style="fill:#ffb27d;fill-opacity:1;fill-rule:nonzero;stroke:none;stroke-width:0.13333333"
     d="m 1020.52,1519.4267 c 0,0 -14.464,-20.5066 -23.96536,-21.2533 -9.5,-0.7467 -14.82133,-0.44 -17.488,8.28 -2.66533,8.72 21.24396,12.4533 22.57066,16.8 1.3253,4.3467 -14.74266,0.9867 -11.49199,6.5333 3.252,5.5467 12.49599,6.12 18.39999,5.5867 5.9027,-0.5333 10.8973,5 10.8973,5 l 1.0774,-20.9467"
     inkscape:connector-curvature="0" /><path
     id="path456"
     style="fill:#ffb27d;fill-opacity:1;fill-rule:nonzero;stroke:none;stroke-width:0.13333333"
     d="m 970.23998,1617.6134 c 0,0 6.13733,-6.7067 3.85066,-9.7467 -2.28533,-3.0533 1.836,-18.4133 3.98934,-21.52 2.15333,-3.1066 1.04666,9.12 3.26666,10.68 2.22,1.5734 3.792,21.5334 -11.10666,20.5867"
     inkscape:connector-curvature="0" /><path
     id="path458"
     style="fill:#cad9ef;fill-opacity:1;fill-rule:nonzero;stroke:none;stroke-width:0.13333333"
     d="m 1799.1466,1041.0001 -3.2266,-0.1734 -23.1734,90.3734 c 0,0 -32.7733,-9.7867 -34.7466,8.4133 -1.96,18.2133 25.4133,16.9467 34.64,13.7467 9.2266,-3.2 9.9733,-19.7867 9.9733,-19.7867 l 12.9867,-72.72 c 2.7866,6.7067 9.7866,12.9333 26.4266,16.9333 1.9067,0.4667 3.9334,0.8534 6.0667,1.1467 -30.7067,-4.36 -28.9733,-36.9467 -28.9467,-37.9333"
     inkscape:connector-curvature="0" /><path
     id="path460"
     style="fill:#f99746;fill-opacity:1;fill-rule:nonzero;stroke:none;stroke-width:0.13333333"
     d="m 1503.1066,890.68008 c 0,0 -42.96,3.26666 -37.0533,25.56 5.9067,22.29333 37.5333,8.46666 46.9333,0.53333 9.4,-7.93333 2.8,-27.76 2.8,-27.76 l -6.3466,0.82667 -6.3334,0.84"
     inkscape:connector-curvature="0" /><path
     id="path462"
     style="fill:#f99746;fill-opacity:1;fill-rule:nonzero;stroke:none;stroke-width:0.13333333"
     d="m 1493.4266,772.69341 -3.88,1.25334 13.56,116.73333 12.68,-1.66667 -17.5733,-91.37333 c 6.3067,6.62667 17.3467,10.8 38.7067,7.98667 2.4666,-0.32 5.0133,-0.78667 7.6666,-1.38667 -38.0666,8.73333 -50.7466,-30.36 -51.16,-31.54667"
     inkscape:connector-curvature="0" /><path
     inkscape:connector-curvature="0"
     d="m 2297.6903,966.03262 c 0,0 -67.41,-13.24862 -67.8227,23.50884 -0.4127,36.77174 54.076,28.98764 71.8784,20.79084 17.8309,-8.1826 16.1232,-41.4678 16.1232,-41.4678 l -10.0894,-1.40882 -10.0895,-1.42306"
     style="fill:#f99746;fill-opacity:1;fill-rule:nonzero;stroke:none;stroke-width:0.14230533"
     id="path466" /><path
     inkscape:connector-curvature="0"
     d="m 2333.0298,780.63053 -6.4737,0.29426 -28.8668,185.10341 20.1862,2.8396 11.9027,-147.86498 c 6.871,12.8591 22.0547,23.96737 56.0857,28.74907 3.9137,0.54438 8.0186,0.92692 12.3442,1.1329 -62.2063,-2.79546 -65.0459,-68.26801 -65.1783,-70.25426"
     style="fill:#f99746;fill-opacity:1;fill-rule:nonzero;stroke:none;stroke-width:0.14712933"
     id="path470" /><path
     id="path472"
     style="fill:#f99746;fill-opacity:1;fill-rule:nonzero;stroke:none;stroke-width:0.13333333"
     d="m 1112.0173,1023.8267 c 1.9267,0.9334 35.332,2.6534 66.08,-30.61329 l 47,79.87999 c 0,0 6.48,28.5867 -22.796,32.7067 -16.288,2.3066 -17.9013,-11.28 -11.248,-21.7334 5.3053,-8.3466 17.868,-13.8666 17.868,-13.8666 l -27.416,-46.5867 c 0,0 -21.132,22.9467 -46.3827,22.6933 l 25.248,49.9334 c 0,0 11.2494,26.9333 -15.236,34.24 -26.4853,7.32 -18.076,-27.44 3.6707,-29.64 l -36.788,-77.0134"
     inkscape:connector-curvature="0" /><path
     id="path474"
     style="fill:#82b378;fill-opacity:1;fill-rule:nonzero;stroke:none;stroke-width:0.13333333"
     d="m 591.30132,2182.9467 c -5.648,-8.8667 -22.644,-31.8933 -45.28133,-28.84 -24.66534,3.32 27.24,19.5733 43.13066,28.9067 -3.528,0.053 -6.56266,-0.2267 -8.79066,-1.0267 -10.624,-3.7867 -28.81867,3.48 -34.636,6.0267 h 101.13999 c -0.69866,-2.4134 -2.52133,-6.3734 -7.23066,-9.2534 -1.66134,-1.0133 -5,-1.1466 -9.30934,-0.8266 6.01467,-7.08 10.19067,-29.7334 -6.55066,-23.9067 -12.23067,4.2533 -12.19734,18.0933 -10.996,26.28 -2.60267,0.4133 -5.24134,0.8267 -7.848,1.2 -5.036,-25.6667 -22.84533,-100.88 -58.94533,-102.88 -36.596,-2.04 31.03333,78 53.55066,103.6 -2.884,0.3467 -5.66266,0.6 -8.23333,0.72"
     inkscape:connector-curvature="0" /><path
     inkscape:connector-curvature="0"
     d="m 3783.0481,2188.0118 h -111.6322 c -5.9907,-5.0653 4.1259,-16.5992 14.7087,-17.3731 4.5921,-0.345 10.3963,0.6131 17.0397,2.014 1.5384,-20.401 10.3031,-112.1194 43.3801,-108.441 37.1564,4.1328 0,40.4011 -10.5361,61.8674 -7.7856,15.9068 -15.9675,38.7065 -19.7437,49.4804 3.0303,0.6527 6.1538,1.2937 9.3473,1.8811 4.9185,-15.1352 23.2635,-66.0143 46.5737,-63.0539 27.3661,3.4662 16.3637,23.8789 -3.0303,35.9862 -14.2425,8.9068 -31.7018,21.5595 -40.0235,27.6808 7.0396,1.1468 14.3823,1.9184 21.8416,1.7459 19.1143,-0.4545 28.4383,5.1865 32.0747,8.2122"
     style="fill:#82b378;fill-opacity:1;fill-rule:nonzero;stroke:none;stroke-width:0.23310132"
     id="path478" /><path
     inkscape:connector-curvature="0"
     d="M 4018.3473,2198.1199 H 215.62551 c -2.3751,0 -4.31881,-1.9324 -4.31881,-4.3188 v -1.4684 c 0,-2.3717 1.94371,-4.3188 4.31881,-4.3188 H 4018.3473 c 2.3691,0 4.3188,1.9471 4.3188,4.3188 v 1.4684 c 0,2.3864 -1.9497,4.3188 -4.3188,4.3188"
     style="fill:#2e3552;fill-opacity:1;fill-rule:nonzero;stroke:none;stroke-width:0.24678934"
     id="path482" /></svg>