<?xml version="1.0" encoding="UTF-8" standalone="no"?>
<svg
   xmlns:dc="http://purl.org/dc/elements/1.1/"
   xmlns:cc="http://creativecommons.org/ns#"
   xmlns:rdf="http://www.w3.org/1999/02/22-rdf-syntax-ns#"
   xmlns:svg="http://www.w3.org/2000/svg"
   xmlns="http://www.w3.org/2000/svg"
   xmlns:xlink="http://www.w3.org/1999/xlink"
   xmlns:sodipodi="http://sodipodi.sourceforge.net/DTD/sodipodi-0.dtd"
   xmlns:inkscape="http://www.inkscape.org/namespaces/inkscape"
   id="_x31_px"
   enable-background="new 0 0 24 24"
   height="512"
   viewBox="0 0 24 24"
   width="512"
   version="1.1"
   sodipodi:docname="cloud.svg"
   inkscape:version="0.92.4 (5da689c313, 2019-01-14)">
  <sodipodi:namedview
     pagecolor="#ffffff"
     bordercolor="#666666"
     borderopacity="1"
     objecttolerance="10"
     gridtolerance="10"
     guidetolerance="10"
     inkscape:pageopacity="0"
     inkscape:pageshadow="2"
     inkscape:window-width="1920"
     inkscape:window-height="1017"
     id="namedview11"
     showgrid="false"
     inkscape:zoom="0.32593203"
     inkscape:cx="644.1644"
     inkscape:cy="995.2951"
     inkscape:window-x="1672"
     inkscape:window-y="-8"
     inkscape:window-maximized="1"
     inkscape:current-layer="_x31_px" />
  <metadata
     id="metadata11">
    <rdf:RDF>
      <cc:Work
         rdf:about="">
        <dc:format>image/svg+xml</dc:format>
        <dc:type
           rdf:resource="http://purl.org/dc/dcmitype/StillImage" />
        <dc:title></dc:title>
      </cc:Work>
    </rdf:RDF>
  </metadata>
  <defs
     id="defs9">
    <linearGradient
       id="linearGradient833">
      <stop
         style="stop-color:#7889eb;stop-opacity:1"
         offset="0"
         id="stop829" />
      <stop
         style="stop-color:#ff5d9f;stop-opacity:1"
         offset="1"
         id="stop831" />
    </linearGradient>
    <linearGradient
       xlink:href="#linearGradient833"
       id="linearGradient835"
       x1="4.3417721"
       y1="12.343778"
       x2="13.353284"
       y2="0.17039059"
       gradientUnits="userSpaceOnUse"
       gradientTransform="matrix(0.93837133,0,0,0.93837133,0.73954406,2.2825472)" />
    <linearGradient
       inkscape:collect="always"
       xlink:href="#linearGradient833"
       id="linearGradient824"
       x1="4.3417721"
       y1="12.343778"
       x2="13.353284"
       y2="0.17039059"
       gradientUnits="userSpaceOnUse"
       gradientTransform="matrix(0.93837133,0,0,0.93837133,0.73954406,2.2825472)" />
  </defs>
  <path
     d="m 4.9631534,18.206709 c -0.017829,0 -0.03472,-9.38e-4 -0.053487,-0.0028 C 2.5327717,17.940212 0.73954406,15.93585 0.73954406,13.543004 0.73954406,11.063826 2.6716506,9.0284987 5.108601,8.862407 5.7579539,5.6193957 8.6528295,3.2209185 12,3.2209185 c 2.628378,0 5.049376,1.48075 6.242984,3.7947737 2.835759,0.2974637 5.017472,2.7006327 5.017472,5.5889398 0,2.514835 -1.685315,4.738775 -4.096929,5.406896 -0.251484,0.0685 -0.508598,-0.07788 -0.577099,-0.327492 -0.06944,-0.249607 0.07695,-0.508597 0.326554,-0.577098 2.007176,-0.555516 3.409103,-2.407861 3.409103,-4.502306 0,-2.483869 -1.93586,-4.5370255 -4.407531,-4.6740278 C 17.740956,7.9212205 17.588001,7.8170613 17.514808,7.6603533 16.522011,5.5340039 14.358127,4.1592899 12,4.1592899 c -3.0168638,0 -5.6086454,2.2473993 -6.0290358,5.2267283 -0.032843,0.2308393 -0.2308393,0.4034996 -0.4644938,0.4034996 -2.1451169,0 -3.828555,1.6834382 -3.828555,3.7534862 0,1.914277 1.4338314,3.517015 3.3368484,3.728149 0.2571138,0.02909 0.4429113,0.260867 0.4138218,0.517981 -0.026274,0.240223 -0.229901,0.417575 -0.4654322,0.417575 z"
     id="path4"
     style="fill:url(#linearGradient835);fill-opacity:1;stroke:url(#linearGradient824);stroke-width:0.4984951;stroke-miterlimit:4;stroke-dasharray:none;stroke-opacity:1"
     inkscape:connector-curvature="0" />
  <g
     id="g44"
     transform="matrix(0.046875,0,0,0.046875,15.661017,15.355932)" />
  <g
     id="g46"
     transform="matrix(0.046875,0,0,0.046875,15.661017,15.355932)" />
  <g
     id="g48"
     transform="matrix(0.046875,0,0,0.046875,15.661017,15.355932)" />
  <g
     id="g50"
     transform="matrix(0.046875,0,0,0.046875,15.661017,15.355932)" />
  <g
     id="g52"
     transform="matrix(0.046875,0,0,0.046875,15.661017,15.355932)" />
  <g
     id="g54"
     transform="matrix(0.046875,0,0,0.046875,15.661017,15.355932)" />
  <g
     id="g56"
     transform="matrix(0.046875,0,0,0.046875,15.661017,15.355932)" />
  <g
     id="g58"
     transform="matrix(0.046875,0,0,0.046875,15.661017,15.355932)" />
  <g
     id="g60"
     transform="matrix(0.046875,0,0,0.046875,15.661017,15.355932)" />
  <g
     id="g62"
     transform="matrix(0.046875,0,0,0.046875,15.661017,15.355932)" />
  <g
     id="g64"
     transform="matrix(0.046875,0,0,0.046875,15.661017,15.355932)" />
  <g
     id="g66"
     transform="matrix(0.046875,0,0,0.046875,15.661017,15.355932)" />
  <g
     id="g68"
     transform="matrix(0.046875,0,0,0.046875,15.661017,15.355932)" />
  <g
     id="g70"
     transform="matrix(0.046875,0,0,0.046875,15.661017,15.355932)" />
  <g
     id="g72"
     transform="matrix(0.046875,0,0,0.046875,15.661017,15.355932)" />
</svg>
