<?xml version="1.0" encoding="UTF-8" standalone="no"?>
<svg
   xmlns="http://www.w3.org/2000/svg"
   xmlns:xlink="http://www.w3.org/1999/xlink"
   version="1.1"
   width="512"
   viewBox="0 0 24 24"
   height="512"
   enable-background="new 0 0 24 24"
   id="_x31_px">
  <defs
     id="defs9">
    <linearGradient
       id="linearGradient833">
      <stop
         id="stop829"
         offset="0"
         style="stop-color:#7889eb;stop-opacity:1" />
      <stop
         id="stop831"
         offset="1"
         style="stop-color:#ff5d9f;stop-opacity:1" />
    </linearGradient>
    <linearGradient
       gradientUnits="userSpaceOnUse"
       y2="0.17039059"
       x2="13.353284"
       y1="12.343778"
       x1="4.3417721"
       id="linearGradient835"
       xlink:href="#linearGradient833" />
    <linearGradient
       gradientUnits="userSpaceOnUse"
       y2="0.17039059"
       x2="13.353284"
       y1="12.343778"
       x1="4.3417721"
       id="linearGradient1020"
       xlink:href="#linearGradient833" />
  </defs>
  <path
     style="fill:#3abeff;fill-opacity:1"
     id="path2"
     d="m 13.5,10.99975 h -3 c -0.552,0 -1,0.449 -1,1 v 5 H 7 c -0.202,0 -0.385,0.122 -0.462,0.309 -0.077,0.187 -0.034,0.402 0.108,0.545 l 5,5 c 0.195,0.195 0.512,0.195 0.707,0 l 5,-5 c 0.143,-0.143 0.186,-0.358 0.108,-0.545 -0.078,-0.187 -0.259,-0.309 -0.461,-0.309 h -2.5 v -5 c 0,-0.551 -0.448,-1 -1,-1 z m -5.293,7 H 10 c 0.276,0 0.5,-0.224 0.5,-0.5 v -5.5 h 3 v 5.5 c 0,0.276 0.224,0.5 0.5,0.5 h 1.793 L 12,21.79275 Z" />
  <path
     style="fill-opacity:1;fill:url(#linearGradient835);stroke:url(#linearGradient1020);stroke-width:0.32029688;stroke-miterlimit:4;stroke-dasharray:none"
     id="path4"
     d="m4.501 16.97c-.019 0-.037-.001-.057-.003-2.533-.281-4.444-2.417-4.444-4.967 0-2.642 2.059-4.811 4.656-4.988.692-3.456 3.777-6.012 7.344-6.012 2.801 0 5.381 1.578 6.653 4.044 3.022.317 5.347 2.878 5.347 5.956 0 2.68-1.796 5.05-4.366 5.762-.268.073-.542-.083-.615-.349-.074-.266.082-.542.348-.615 2.139-.592 3.633-2.566 3.633-4.798 0-2.647-2.063-4.835-4.697-4.981-.185-.01-.348-.121-.426-.288-1.058-2.266-3.364-3.731-5.877-3.731-3.215 0-5.977 2.395-6.425 5.57-.035.246-.246.43-.495.43-2.286 0-4.08 1.794-4.08 4 0 2.04 1.528 3.748 3.556 3.973.274.031.472.278.441.552-.028.256-.245.445-.496.445z" />
</svg>
