<?xml version="1.0" encoding="UTF-8" standalone="no"?>
<svg
   xmlns:dc="http://purl.org/dc/elements/1.1/"
   xmlns:cc="http://creativecommons.org/ns#"
   xmlns:rdf="http://www.w3.org/1999/02/22-rdf-syntax-ns#"
   xmlns:svg="http://www.w3.org/2000/svg"
   xmlns="http://www.w3.org/2000/svg"
   xmlns:xlink="http://www.w3.org/1999/xlink"
   xml:space="preserve"
   style="enable-background:new 0 0 512 512;"
   viewBox="0 0 512 512"
   y="0px"
   x="0px"
   id="Capa_1"
   version="1.1"><metadata
   id="metadata79"><rdf:RDF><cc:Work
       rdf:about=""><dc:format>image/svg+xml</dc:format><dc:type
         rdf:resource="http://purl.org/dc/dcmitype/StillImage" /><dc:title></dc:title></cc:Work></rdf:RDF></metadata><defs
   id="defs77"><linearGradient
     id="linearGradient946"><stop
       id="stop960"
       offset="0"
       style="stop-color:#3abeff;stop-opacity:1" /><stop
       id="stop962"
       offset="1"
       style="stop-color:#7889eb;stop-opacity:1" /></linearGradient><linearGradient
     id="linearGradient946-3"><stop
       style="stop-color:#7889eb;stop-opacity:1"
       offset="0"
       id="stop942" /><stop
       style="stop-color:#ff5d9f;stop-opacity:1"
       offset="1"
       id="stop944" /></linearGradient><linearGradient
     id="linearGradient936"><stop
       id="stop932"
       offset="0"
       style="stop-color:#000000;stop-opacity:1;" /><stop
       id="stop934"
       offset="1"
       style="stop-color:#000000;stop-opacity:0;" /></linearGradient><linearGradient
     gradientUnits="userSpaceOnUse"
     y2="256"
     x2="512"
     y1="256"
     x1="0"
     id="linearGradient938"
     xlink:href="#linearGradient936" /><linearGradient
     y2="-32.542374"
     x2="442.57626"
     y1="572.74579"
     x1="8.6779661"
     gradientUnits="userSpaceOnUse"
     id="linearGradient940"
     xlink:href="#linearGradient946-3" /><linearGradient
     y2="242.98306"
     x2="324.33896"
     y1="342.77966"
     x1="134.50847"
     gradientUnits="userSpaceOnUse"
     id="linearGradient948"
     xlink:href="#linearGradient946" /><linearGradient
     y2="256"
     x2="512"
     y1="256"
     x1="0"
     gradientUnits="userSpaceOnUse"
     id="linearGradient950"
     xlink:href="#linearGradient946" /><linearGradient
     y2="256"
     x2="512"
     y1="256"
     x1="0"
     gradientUnits="userSpaceOnUse"
     id="linearGradient952"
     xlink:href="#linearGradient946" /><linearGradient
     y2="256"
     x2="512"
     y1="256"
     x1="0"
     gradientUnits="userSpaceOnUse"
     id="linearGradient954"
     xlink:href="#linearGradient946" /><linearGradient
     y2="256"
     x2="512"
     y1="256"
     x1="0"
     gradientUnits="userSpaceOnUse"
     id="linearGradient956"
     xlink:href="#linearGradient946" /><linearGradient
     y2="256"
     x2="512"
     y1="256"
     x1="0"
     gradientUnits="userSpaceOnUse"
     id="linearGradient958"
     xlink:href="#linearGradient946" /></defs>






<g
   style="fill:url(#linearGradient938);fill-opacity:1"
   id="g930"><g
     id="g6"
     style="fill:url(#linearGradient938);fill-opacity:1">
	<g
   id="g4"
   style="fill:url(#linearGradient938);fill-opacity:1">
		<path
   d="M512,165c0-5.987-1.161-11.808-3.45-17.301c-0.002-0.004-0.004-0.009-0.006-0.013L458.539,27.69    C451.529,10.869,435.224,0,417.001,0H94.999C76.776,0,60.471,10.869,53.461,27.69L3.45,147.698C1.161,153.192,0,159.013,0,165v62    c0,11.517,4.354,22.032,11.495,30C4.354,264.968,0,275.483,0,287v60c0,11.517,4.354,22.032,11.495,30    C4.354,384.968,0,395.483,0,407v60c0,24.813,20.187,45,45,45h422c24.813,0,45-20.187,45-45v-60c0-11.517-4.354-22.032-11.495-30    c7.142-7.968,11.495-18.483,11.495-30v-60c0-11.517-4.354-22.032-11.495-30c7.142-7.968,11.495-18.483,11.495-30V165z     M81.153,39.23C83.49,33.623,88.925,30,94.999,30h322.002c6.074,0,11.509,3.623,13.846,9.23l33.66,80.77H47.493L81.153,39.23z     M482,467c0,8.271-6.729,15-15,15H45c-8.271,0-15-6.729-15-15v-60c0-8.271,6.729-15,15-15h422c8.271,0,15,6.729,15,15V467z     M482,347c0,8.271-6.729,15-15,15H45c-8.271,0-15-6.729-15-15v-60c0-8.271,6.729-15,15-15h422c8.271,0,15,6.729,15,15V347z     M482,227c0,8.271-6.729,15-15,15H45c-8.271,0-15-6.729-15-15v-62c0-8.342,6.736-15,15-15h422c8.29,0,15,6.684,15,15V227z"
   id="path2"
   style="fill:url(#linearGradient940);fill-opacity:1" />
	</g>
</g><g
     id="g12"
     style="fill:url(#linearGradient938);fill-opacity:1">
	<g
   id="g10"
   style="fill:url(#linearGradient938);fill-opacity:1">
		<path
   d="M437,422H165c-8.284,0-15,6.716-15,15s6.716,15,15,15h272c8.284,0,15-6.716,15-15S445.284,422,437,422z"
   id="path8"
   style="fill:url(#linearGradient956);fill-opacity:1.0" />
	</g>
</g><g
     id="g18"
     style="fill:url(#linearGradient938);fill-opacity:1">
	<g
   id="g16"
   style="fill:url(#linearGradient938);fill-opacity:1">
		<path
   d="M437,180H165c-8.284,0-15,6.716-15,15s6.716,15,15,15h272c8.284,0,15-6.716,15-15S445.284,180,437,180z"
   id="path14"
   style="fill:url(#linearGradient948);fill-opacity:1" />
	</g>
</g><g
     id="g24"
     style="fill:url(#linearGradient938);fill-opacity:1">
	<g
   id="g22"
   style="fill:url(#linearGradient938);fill-opacity:1">
		<path
   d="M75,180c-8.284,0-15,6.716-15,15s6.716,17,15,17s15-8.716,15-17S83.284,180,75,180z"
   id="path20"
   style="fill:url(#linearGradient950);fill-opacity:1.0" />
	</g>
</g><g
     id="g30"
     style="fill:url(#linearGradient938);fill-opacity:1">
	<g
   id="g28"
   style="fill:url(#linearGradient938);fill-opacity:1">
		<path
   d="M437,302H165c-8.284,0-15,6.716-15,15s6.716,15,15,15h272c8.284,0,15-6.716,15-15S445.284,302,437,302z"
   id="path26"
   style="fill:url(#linearGradient952);fill-opacity:1.0" />
	</g>
</g><g
     id="g36"
     style="fill:url(#linearGradient938);fill-opacity:1">
	<g
   id="g34"
   style="fill:url(#linearGradient938);fill-opacity:1">
		<circle
   cx="75"
   cy="317"
   r="15"
   id="circle32"
   style="fill:url(#linearGradient954);fill-opacity:1.0" />
	</g>
</g><g
     id="g42"
     style="fill:url(#linearGradient938);fill-opacity:1">
	<g
   id="g40"
   style="fill:url(#linearGradient938);fill-opacity:1">
		<circle
   cx="75"
   cy="437"
   r="15"
   id="circle38"
   style="fill:url(#linearGradient958);fill-opacity:1.0" />
	</g>
</g></g>
<g
   id="g44">
</g>
<g
   id="g46">
</g>
<g
   id="g48">
</g>
<g
   id="g50">
</g>
<g
   id="g52">
</g>
<g
   id="g54">
</g>
<g
   id="g56">
</g>
<g
   id="g58">
</g>
<g
   id="g60">
</g>
<g
   id="g62">
</g>
<g
   id="g64">
</g>
<g
   id="g66">
</g>
<g
   id="g68">
</g>
<g
   id="g70">
</g>
<g
   id="g72">
</g>
</svg>