<?xml version="1.0" encoding="UTF-8" standalone="no"?>
<!-- Generator: Adobe Illustrator 19.0.0, SVG Export Plug-In . SVG Version: 6.00 Build 0)  -->

<svg
   xmlns:dc="http://purl.org/dc/elements/1.1/"
   xmlns:cc="http://creativecommons.org/ns#"
   xmlns:rdf="http://www.w3.org/1999/02/22-rdf-syntax-ns#"
   xmlns:svg="http://www.w3.org/2000/svg"
   xmlns="http://www.w3.org/2000/svg"
   xmlns:sodipodi="http://sodipodi.sourceforge.net/DTD/sodipodi-0.dtd"
   xmlns:inkscape="http://www.inkscape.org/namespaces/inkscape"
   version="1.1"
   id="Capa_1"
   x="0px"
   y="0px"
   viewBox="0 0 511.999 511.999"
   style="enable-background:new 0 0 511.999 511.999;"
   xml:space="preserve"
   sodipodi:docname="no_group_dark.svg"
   inkscape:version="0.92.4 (5da689c313, 2019-01-14)"><metadata
   id="metadata73"><rdf:RDF><cc:Work
       rdf:about=""><dc:format>image/svg+xml</dc:format><dc:type
         rdf:resource="http://purl.org/dc/dcmitype/StillImage" /><dc:title></dc:title></cc:Work></rdf:RDF></metadata><defs
   id="defs71" /><sodipodi:namedview
   pagecolor="#ffffff"
   bordercolor="#666666"
   borderopacity="1"
   objecttolerance="10"
   gridtolerance="10"
   guidetolerance="10"
   inkscape:pageopacity="0"
   inkscape:pageshadow="2"
   inkscape:window-width="1920"
   inkscape:window-height="1017"
   id="namedview69"
   showgrid="false"
   showguides="true"
   inkscape:guide-bbox="true"
   inkscape:zoom="0.9218768"
   inkscape:cx="-40.704287"
   inkscape:cy="302.92008"
   inkscape:window-x="1672"
   inkscape:window-y="-8"
   inkscape:window-maximized="1"
   inkscape:current-layer="Capa_1" />
<g
   id="g6"
   style="fill:#ffffff;fill-opacity:0.16908211">
	<g
   id="g4"
   style="fill:#ffffff;fill-opacity:0.16908211">
		<path
   d="M438.09,273.32h-39.596c4.036,11.05,6.241,22.975,6.241,35.404v149.65c0,5.182-0.902,10.156-2.543,14.782h65.461    c24.453,0,44.346-19.894,44.346-44.346v-81.581C512,306.476,478.844,273.32,438.09,273.32z"
   id="path2"
   style="fill:#ffffff;fill-opacity:0.16908211" />
	</g>
</g>
<g
   id="g12"
   style="fill:#ffffff;fill-opacity:0.16908211">
	<g
   id="g10"
   style="fill:#ffffff;fill-opacity:0.16908211">
		<path
   d="M107.265,308.725c0-12.43,2.205-24.354,6.241-35.404H73.91c-40.754,0-73.91,33.156-73.91,73.91v81.581    c0,24.452,19.893,44.346,44.346,44.346h65.462c-1.641-4.628-2.543-9.601-2.543-14.783V308.725z"
   id="path8"
   style="fill:#ffffff;fill-opacity:0.16908211" />
	</g>
</g>
<g
   id="g18"
   style="fill:#ffffff;fill-opacity:0.25120777">
	<g
   id="g16"
   style="fill:#ffffff;fill-opacity:0.25120777">
		<path
   d="M301.261,234.815h-90.522c-40.754,0-73.91,33.156-73.91,73.91v149.65c0,8.163,6.618,14.782,14.782,14.782h208.778    c8.164,0,14.782-6.618,14.782-14.782v-149.65C375.171,267.971,342.015,234.815,301.261,234.815z"
   id="path14"
   style="fill:#ffffff;fill-opacity:0.25120777" />
	</g>
</g>
<g
   id="g24"
   style="fill:#ffffff;fill-opacity:0.25120777">
	<g
   id="g22"
   style="fill:#ffffff;fill-opacity:0.25120777">
		<path
   d="M256,38.84c-49.012,0-88.886,39.874-88.886,88.887c0,33.245,18.349,62.28,45.447,77.524    c12.853,7.23,27.671,11.362,43.439,11.362c15.768,0,30.586-4.132,43.439-11.362c27.099-15.244,45.447-44.28,45.447-77.524    C344.886,78.715,305.012,38.84,256,38.84z"
   id="path20"
   style="fill:#ffffff;fill-opacity:0.25120777" />
	</g>
</g>
<g
   id="g30"
   style="fill:#ffffff;fill-opacity:0.16908211">
	<g
   id="g28"
   style="fill:#ffffff;fill-opacity:0.16908211">
		<path
   d="M99.918,121.689c-36.655,0-66.475,29.82-66.475,66.475c0,36.655,29.82,66.475,66.475,66.475    c9.298,0,18.152-1.926,26.195-5.388c13.906-5.987,25.372-16.585,32.467-29.86c4.98-9.317,7.813-19.946,7.813-31.227    C166.393,151.51,136.573,121.689,99.918,121.689z"
   id="path26"
   style="fill:#ffffff;fill-opacity:0.16908211" />
	</g>
</g>
<g
   id="g36"
   style="fill:#ffffff;fill-opacity:0.16908211">
	<g
   id="g34"
   style="fill:#ffffff;fill-opacity:0.16908211">
		<path
   d="M412.082,121.689c-36.655,0-66.475,29.82-66.475,66.475c0,11.282,2.833,21.911,7.813,31.227    c7.095,13.276,18.561,23.874,32.467,29.86c8.043,3.462,16.897,5.388,26.195,5.388c36.655,0,66.475-29.82,66.475-66.475    C478.557,151.509,448.737,121.689,412.082,121.689z"
   id="path32"
   style="fill:#ffffff;fill-opacity:0.16908211" />
	</g>
</g>
<g
   id="g38">
</g>
<g
   id="g40">
</g>
<g
   id="g42">
</g>
<g
   id="g44">
</g>
<g
   id="g46">
</g>
<g
   id="g48">
</g>
<g
   id="g50">
</g>
<g
   id="g52">
</g>
<g
   id="g54">
</g>
<g
   id="g56">
</g>
<g
   id="g58">
</g>
<g
   id="g60">
</g>
<g
   id="g62">
</g>
<g
   id="g64">
</g>
<g
   id="g66">
</g>
<path
   style="opacity:1;fill:#d3bfff;fill-opacity:1;stroke:none;stroke-width:24.26262093;stroke-linecap:round;stroke-linejoin:miter;stroke-miterlimit:4;stroke-dasharray:none;stroke-dashoffset:0;stroke-opacity:1;paint-order:normal"
   d="m 290.46202,116.28932 c -2.30656,20.49772 -14.06838,39.66724 -16.68528,44.64032 -2.61687,4.97308 -3.54221,7.35104 -3.54247,11.43182 -4e-5,11.16776 9.05324,20.22103 20.22099,20.221 11.16775,3e-5 20.22103,-9.05324 20.22099,-20.221 -0.002,-3.83119 -0.8487,-6.24729 -3.14415,-10.81841 -2.29546,-4.57114 -14.80909,-24.37612 -17.07008,-45.25373 z"
   id="path883"
   inkscape:connector-curvature="0"
   sodipodi:nodetypes="czccczc" /></svg>