<svg id="Capa_1" enable-background="new 0 0 510.755 510.755" height="512"
    viewBox="0 0 510.755 510.755" width="512" xmlns="http://www.w3.org/2000/svg">
    <g>
        <g fill="#906eff">
            <path d="m210.074 210.148h-150v-150h150zm-120-30h90v-90h-90z" />
            <path d="m120.074 120.148h30v30h-30z" />
            <path d="m210.074 450.148h-150v-150h150zm-120-30h90v-90h-90z" />
            <path d="m120.074 360.148h30v30h-30z" />
        </g>
        <path d="m450.008 210.148h-150v-150h150zm-120-30h90v-90h-90z" fill="#6a3dff" />
        <path d="m360.008 120.148h30v30h-30z" fill="#6a3dff" />
        <path d="m440.074 391.509h30v127.279h-30z" fill="#bd3356"
            transform="matrix(.707 -.707 .707 .707 -188.55 455.096)" />
        <path d="m365.074 365.148h-107.528v-30h77.528v-79.425h30z" fill="#6a3dff" />
        <path d="m30.074 119.852h-30v-119.704h120v30h-90z" fill="#906eff" />
        <path d="m119.926 510.148h-119.703v-120h30v90h89.703z" fill="#906eff" />
        <path d="m510.074 120h-30v-90h-89.703v-30h119.703z" fill="#6a3dff" />
        <path d="m255.074 60.148h15v60h-15z" fill="#6a3dff" />
        <path d="m240.074 60.148h15v60h-15z" fill="#906eff" />
        <path d="m180.074 240.148h60v30h-60z" fill="#906eff" />
        <path d="m60.074 240.148h90v30h-90z" fill="#906eff" />
        <path d="m255.074 150.148h15v60h-15z" fill="#6a3dff" />
        <path d="m240.074 150.148h15v60h-15z" fill="#906eff" />
        <path
            d="m345.074 450.148c-57.897 0-105-47.103-105-105s47.103-105 105-105 105 47.103 105 105-47.102 105-105 105zm0-180c-41.355 0-75 33.645-75 75s33.645 75 75 75 75-33.645 75-75-33.644-75-75-75z"
            fill="#e35f6f" />
    </g>
</svg>