<?xml version="1.0" encoding="UTF-8" standalone="no"?>
<svg

   xmlns="http://www.w3.org/2000/svg"
   xmlns:xlink="http://www.w3.org/1999/xlink"
   id="_x31_px"
   enable-background="new 0 0 24 24"
   height="512"
   viewBox="0 0 24 24"
   width="512"
   version="1.1">
  <defs
     id="defs9">
    <linearGradient
       id="linearGradient942">
      <stop
         id="stop938"
         offset="0"
         style="stop-color:#3abeff;stop-opacity:1" />
      <stop
         id="stop940"
         offset="1"
         style="stop-color:#7889eb;stop-opacity:1" />
    </linearGradient>
    <linearGradient
       id="linearGradient833">
      <stop
         style="stop-color:#7889eb;stop-opacity:1"
         offset="0"
         id="stop829" />
      <stop
         style="stop-color:#ff5d9f;stop-opacity:1"
         offset="1"
         id="stop831" />
    </linearGradient>
    <linearGradient
       gradientTransform="matrix(0.96679211,0,0,0.96679211,0.39834829,-0.44869738)"
       xlink:href="#linearGradient833"
       id="linearGradient835"
       x1="4.3417721"
       y1="12.343778"
       x2="13.764693"
       y2="-1.8180891"
       gradientUnits="userSpaceOnUse" />
    <linearGradient
       gradientUnits="userSpaceOnUse"
       y2="24.671871"
       x2="12.108833"
       y1="9.4370174"
       x1="12.000051"
       id="linearGradient936"
       xlink:href="#linearGradient942" />
  </defs>
  <path
     d="m 4.7498796,15.957765 c -0.018369,0 -0.035771,-9.67e-4 -0.055107,-0.0029 -2.4488844,-0.271669 -4.2964241,-2.336737 -4.2964241,-4.802057 0,-2.5542648 1.990625,-4.6512369 4.501384,-4.8223591 0.6690202,-3.3412335 3.6515738,-5.81235417 7.1001195,-5.81235417 2.707985,0 5.202308,1.52559797 6.432068,3.90970727 2.921646,0.3064731 5.169437,2.7824277 5.169437,5.758214 0,2.591003 -1.736358,4.8823 -4.221014,5.570656 -0.2591,0.07058 -0.524001,-0.08024 -0.594577,-0.33741 -0.07154,-0.257167 0.07928,-0.524002 0.336443,-0.594577 2.067969,-0.572341 3.512356,-2.480789 3.512356,-4.638669 0,-2.5590989 -1.994492,-4.67444 -4.541022,-4.8155917 -0.178857,-0.00967 -0.336444,-0.1169818 -0.411854,-0.2784361 -1.022866,-2.1907509 -3.252288,-3.6071014 -5.681837,-3.6071014 -3.1082348,0 -5.7785146,2.3154671 -6.2116375,5.3850321 -0.033838,0.2378308 -0.2378309,0.4157206 -0.4785621,0.4157206 -2.2100868,0 -3.9445118,1.734425 -3.9445118,3.8671685 0,1.972256 1.4772583,3.623537 3.4379127,3.841065 0.2649011,0.02997 0.4563259,0.268768 0.4263554,0.533669 -0.02707,0.247499 -0.2368641,0.430223 -0.4795291,0.430223 z"
     id="path4"
     style="fill:url(#linearGradient835);fill-opacity:1;stroke-width:0.96679211" />
  <path
     id="path2-26"
     d="m 11.999532,8.3224081 c -0.118179,0 -0.236348,0.044974 -0.326369,0.134994 L 7.0567436,13.073908 c -0.131106,0.132031 -0.170836,0.33055 -0.09975,0.503205 0.07109,0.172657 0.240035,0.285289 0.426538,0.285289 h 2.308254 v 1.06647 3.208682 h -2.308253 c -0.186504,0 -0.355444,0.112633 -0.426539,0.285288 -0.07109,0.172655 -0.03136,0.371174 0.09975,0.503206 l 4.6164194,4.616506 c 0.180042,0.180041 0.4727,0.180041 0.652741,0 l 4.616504,-4.616506 c 0.132031,-0.132032 0.17168,-0.330551 0.09966,-0.503206 -0.07202,-0.172655 -0.239105,-0.285288 -0.425608,-0.285288 h -2.30825 v -3.208682 -1.06647 h 2.308253 c 0.186503,0 0.353592,-0.112632 0.425608,-0.285289 0.07202,-0.172655 0.03237,-0.371174 -0.09966,-0.503205 L 12.325904,8.4574021 c -0.09002,-0.090021 -0.208189,-0.134994 -0.326372,-0.134994 z m 5.19e-4,1.114609 3.501981,3.5020659 h -1.65543 c -0.254828,0 -0.461616,0.206789 -0.461616,0.461617 v 1.528172 3.670384 c 0,0.254828 0.206788,0.461616 0.461616,0.461616 h 1.65543 l -3.501981,3.502066 -3.5020664,-3.502066 h 1.6554284 c 0.254828,0 0.461704,-0.206788 0.461704,-0.461616 V 14.928872 13.4007 c 0,-0.254828 -0.206876,-0.461617 -0.461704,-0.461617 H 8.4979846 Z"
     style="fill:url(#linearGradient936);fill-opacity:1;stroke-width:0.9232899" />
</svg>
